<svg id="camera" xmlns="http://www.w3.org/2000/svg" viewBox="0 0 35.21 29.18">
  <title>camera</title>
  <path id="camera-outer" d="M34.69,7.93A35,35,0,0,0,25.54,5l-0.22-.92A5.3,5.3,0,0,0,20.14,0H15.08A5.31,5.31,0,0,0,9.89,4.12L9.67,5A34.68,34.68,0,0,0,.52,7.93,1,1,0,0,0,0,8.79V20.27a8.36,8.36,0,0,0,8.35,8.35,1,1,0,0,0,0-1.95,6.4,6.4,0,0,1-6.4-6.4V9.41a36.44,36.44,0,0,1,8.7-2.56,1,1,0,0,0,.78-0.74l0.36-1.55a3.36,3.36,0,0,1,3.29-2.61h5.06a3.36,3.36,0,0,1,3.29,2.61l0.36,1.55a1,1,0,0,0,.78.74,36.79,36.79,0,0,1,8.7,2.56V20.27a6.4,6.4,0,0,1-6.4,6.4,1,1,0,0,0,0,1.95,8.36,8.36,0,0,0,8.35-8.35V8.79A1,1,0,0,0,34.69,7.93Z"/>
  <path id="camera-button" d="M3.19,5.94a0.89,0.89,0,0,0,.3-0.05c1-.34,2.1-0.64,3.2-0.9A1,1,0,0,0,6.25,3.1C5.1,3.37,4,3.69,2.88,4a1,1,0,0,0-.62,1.23A1,1,0,0,0,3.19,5.94Z"/>
  <path id="camera-lens" d="M17.61,6.74A11.22,11.22,0,1,0,28.83,18,11.23,11.23,0,0,0,17.61,6.74Zm0,20.5A9.27,9.27,0,1,1,26.88,18,9.28,9.28,0,0,1,17.61,27.23Z"/>
</svg>
