<svg id="Ebene_1" data-name="Ebene 1" xmlns="http://www.w3.org/2000/svg" viewBox="0 0 489.4 427.3">
  <title>house</title>
  <g>
    <path d="M347.7,232.7H281.2a33,33,0,0,0-33,33v51a33,33,0,0,0,33,33h66.5a33,33,0,0,0,33-33v-51A33,33,0,0,0,347.7,232.7Zm9,84a9,9,0,0,1-9,9H281.2a9,9,0,0,1-9-9v-51a9,9,0,0,1,9-9h66.5a9,9,0,0,1,9,9v51Z"/>
    <path d="M489.4,140a11.14,11.14,0,0,0-1.6-5.9L415,6.1A12.06,12.06,0,0,0,404.6,0H84.7A11.86,11.86,0,0,0,74.3,6.1L1.6,134.1A12.13,12.13,0,0,0,0,140a70.2,70.2,0,0,0,42,64.2V415.3a12,12,0,0,0,12,12H435.3a12,12,0,0,0,12-12V205.7a5.28,5.28,0,0,0-.1-1.3A70.39,70.39,0,0,0,489.4,140ZM91.7,24.1H397.6l56.9,100.1H34.9Zm256.6,124a46.12,46.12,0,0,1-90.8,0h90.8Zm-116.3,0a46.18,46.18,0,0,1-90.9,0H232Zm-207.2,0h90.9A46.18,46.18,0,0,1,24.8,148.1ZM201.6,403.3h-69V273.8a17.09,17.09,0,0,1,17.1-17.1h34.9a17.09,17.09,0,0,1,17.1,17.1V403.3h-0.1Zm221.7,0H225.6V273.8a41.16,41.16,0,0,0-41.1-41.1H149.6a41.16,41.16,0,0,0-41.1,41.1V403.4H66V210.1c1.4,0.1,2.8.1,4.2,0.1a70.11,70.11,0,0,0,58.2-31,70.13,70.13,0,0,0,116.4,0,69.95,69.95,0,0,0,116.2,0,70.11,70.11,0,0,0,58.2,31c1.4,0,2.7-.1,4.1-0.1V403.3h0Zm-4.1-217.1a46.1,46.1,0,0,1-45.4-38h90.9A46.38,46.38,0,0,1,419.2,186.2Z"/>
  </g>
</svg>
