<svg id="Ebene_1" data-name="Ebene 1" xmlns="http://www.w3.org/2000/svg" viewBox="0 0 612 564.65">
  <title>kalendar</title>
  <path d="M566.16,59.2h-60V25.9A26.24,26.24,0,0,0,480.31,0h-37a26.24,26.24,0,0,0-25.9,25.9V59.2H197.6V25.9A26.24,26.24,0,0,0,171.71,0h-37a26.24,26.24,0,0,0-25.9,25.9V59.2H45.91A46.13,46.13,0,0,0,0,105.11V518.75a46.13,46.13,0,0,0,45.91,45.91H566.09A46.13,46.13,0,0,0,612,518.75V105.11A46.07,46.07,0,0,0,566.16,59.2ZM444.82,28.09h34.05v81.4H444.82V28.09Zm-308.6,0h34.05v81.4H136.21V28.09h0ZM46.66,86.61h62.9V111a26.24,26.24,0,0,0,25.9,25.9h37a26.24,26.24,0,0,0,25.9-25.9V86.61H417.41V111a26.24,26.24,0,0,0,25.9,25.9h37a26.24,26.24,0,0,0,25.9-25.9V86.61h60.71a18.34,18.34,0,0,1,18.5,18.5v74H28.16v-74A18.29,18.29,0,0,1,46.66,86.61Zm519.5,450.64H46.66a18.34,18.34,0,0,1-18.5-18.5V206.45h556.5v312.3A18.34,18.34,0,0,1,566.16,537.25ZM148.82,281.2a13.22,13.22,0,0,1-13.29,13.29H91.13a13.29,13.29,0,1,1,0-26.58h44.4C142.86,267.15,148.82,273.8,148.82,281.2Zm128,0a13.22,13.22,0,0,1-13.29,13.29h-44.4a13.29,13.29,0,1,1,0-26.58h44.4C270.17,267.15,276.81,273.8,276.81,281.2Zm127.31,0a13.22,13.22,0,0,1-13.29,13.29h-44.4a13.29,13.29,0,1,1,0-26.58h44.4C398.16,267.15,404.12,273.8,404.12,281.2Zm128,0a13.22,13.22,0,0,1-13.29,13.29h-44.4a13.29,13.29,0,1,1,0-26.58h44.4C526.22,267.15,532.11,273.8,532.11,281.2Zm-383.29,91a13.22,13.22,0,0,1-13.29,13.29H91.13a13.29,13.29,0,1,1,0-26.58h44.4A13.26,13.26,0,0,1,148.82,372.19Zm128,0a13.22,13.22,0,0,1-13.29,13.29h-44.4a13.29,13.29,0,1,1,0-26.58h44.4C270.17,358.9,276.81,364.79,276.81,372.19Zm127.31,0a13.22,13.22,0,0,1-13.29,13.29h-44.4a13.29,13.29,0,1,1,0-26.58h44.4A13.26,13.26,0,0,1,404.12,372.19Zm128,0a13.22,13.22,0,0,1-13.29,13.29h-44.4a13.29,13.29,0,1,1,0-26.58h44.4A13.22,13.22,0,0,1,532.11,372.19ZM148.82,464a13.22,13.22,0,0,1-13.29,13.29H91.13a13.29,13.29,0,1,1,0-26.58h44.4C142.86,449.89,148.82,455.85,148.82,464Zm128,0a13.22,13.22,0,0,1-13.29,13.29h-44.4a13.29,13.29,0,0,1,0-26.58h44.4C270.17,449.89,276.81,455.85,276.81,464Zm127.31,0a13.22,13.22,0,0,1-13.29,13.29h-44.4a13.29,13.29,0,0,1,0-26.58h44.4C398.16,449.89,404.12,455.85,404.12,464Zm128,0a13.22,13.22,0,0,1-13.29,13.29h-44.4a13.29,13.29,0,1,1,0-26.58h44.4C526.22,449.89,532.11,455.85,532.11,464Z"/>
</svg>
