<svg id="Ebene_1" data-name="Ebene 1" xmlns="http://www.w3.org/2000/svg" viewBox="0 0 395 484.4">
  <title>like-shine</title>
  <g>
    <path d="M120.2,197.5a12,12,0,0,0-12-12H12a12,12,0,0,0,0,24h96.2A12,12,0,0,0,120.2,197.5Z"/>
    <path d="M383,185.5H286.8a12,12,0,0,0,0,24H383A12,12,0,0,0,383,185.5Z"/>
    <path d="M197.5,120.2a12,12,0,0,0,12-12V12a12,12,0,0,0-24,0v96.2A12,12,0,0,0,197.5,120.2Z"/>
    <path d="M260.6,146.4a12.21,12.21,0,0,0,8.5-3.5l68.1-68.1a12,12,0,0,0-17-17l-68.1,68.1a12,12,0,0,0,0,17A12.39,12.39,0,0,0,260.6,146.4Z"/>
    <path d="M125.9,142.9a12,12,0,0,0,8.5,3.5,12.21,12.21,0,0,0,8.5-3.5,12,12,0,0,0,0-17L74.8,57.8a12,12,0,0,0-17,17Z"/>
    <path d="M341.7,273.2a49.8,49.8,0,0,0-32.3-12.1H240.7V212.6c0-23.2-6.9-40.1-20.6-50.2-21.6-15.8-50.9-6.9-52.2-6.5a12,12,0,0,0-8.4,11.4v58.5c0,17.8-8.5,32.9-25.4,45a102.36,102.36,0,0,1-27.6,13.9l-1.2.3a24.55,24.55,0,0,0-18.5-8.3H41.2a24.75,24.75,0,0,0-24.7,24.7V451a24.75,24.75,0,0,0,24.7,24.7H87a24.35,24.35,0,0,0,15.8-5.8A50.37,50.37,0,0,0,138,484.4H281.3c14.4,0,27.1-3.5,36.8-10,12.4-8.4,20.1-21.7,22.3-38.7l18.5-115A51.72,51.72,0,0,0,341.7,273.2ZM87.7,451a0.68,0.68,0,0,1-.7.7H41.2a0.68,0.68,0,0,1-.7-0.7V301.4a0.68,0.68,0,0,1,.7-0.7H87a0.68,0.68,0,0,1,.7.7V451ZM335.2,317L316.7,432.2a1.09,1.09,0,0,1-.1.5c-0.8,6.9-3.4,27.8-35.3,27.8H138a26.59,26.59,0,0,1-26-22.3c-0.1-.5-0.2-1-0.3-1.4V308.2l0.7-.2c0.2,0,.3-0.1.5-0.1a122.08,122.08,0,0,0,34.6-17.1c23.5-16.7,36-39.2,36-65V177.2c6.6-.7,15.7-0.4,22.4,4.5,7.2,5.3,10.8,15.7,10.8,30.8V273a12,12,0,0,0,12,12h80.7a26.27,26.27,0,0,1,16.7,6.3A28.2,28.2,0,0,1,335.2,317Z"/>
  </g>
</svg>
