<svg id="like" xmlns="http://www.w3.org/2000/svg" viewBox="0 0 28.73 29.55">
  <title>like</title>
  <path id="like-hand" d="M27.87,20.09a3.67,3.67,0,0,0,.86-2.45,3.77,3.77,0,0,0-.8-2.13,3.3,3.3,0,0,0-.78-3.8c-1-.9-2.65-1.3-5-1.19a19.39,19.39,0,0,0-3,.39h0l-1,.2a10.78,10.78,0,0,1,.77-3.59c0.87-2.63.82-4.65-.16-6A3.93,3.93,0,0,0,15.62,0a1.55,1.55,0,0,0-1.19.54,4.16,4.16,0,0,0-.52,2.95c-0.82,2.19-3.1,7.55-5,9l-0.1.09a6.64,6.64,0,0,0-1.21,1.82,2.55,2.55,0,0,0-1.22-.31H2.57A2.57,2.57,0,0,0,0,16.7v10a2.57,2.57,0,0,0,2.57,2.57H6.34a2.57,2.57,0,0,0,1.48-.47L9.28,29a62.22,62.22,0,0,0,8.24.45c0.74,0.06,1.43.09,2.07,0.09a13.87,13.87,0,0,0,2.87-.26,5.37,5.37,0,0,0,3.84-2.39,3.78,3.78,0,0,0,.42-2.37,3.94,3.94,0,0,0,1.4-3.21A4.17,4.17,0,0,0,27.87,20.09ZM2.57,27.64a0.9,0.9,0,0,1-.9-0.9v-10a0.9,0.9,0,0,1,.9-0.9H6.34a0.9,0.9,0,0,1,.9.9v10a0.9,0.9,0,0,1-.9.9H2.57Zm23.71-8.28a0.83,0.83,0,0,0-.11,1,2.57,2.57,0,0,1,.28,1,2.47,2.47,0,0,1-1.16,2.14,0.84,0.84,0,0,0-.28,1,2.18,2.18,0,0,1-.17,1.59,3.87,3.87,0,0,1-2.73,1.57,16.28,16.28,0,0,1-4.51.14H17.52a61,61,0,0,1-8-.44h0l-0.62-.07a2.62,2.62,0,0,0,.06-0.54v-10a2.61,2.61,0,0,0-.12-0.77,5.17,5.17,0,0,1,1.15-2.12c2.77-2.2,5.49-9.62,5.61-9.94a0.78,0.78,0,0,0,0-.41,3.86,3.86,0,0,1,.08-1.79,2.22,2.22,0,0,1,1.74.83C18,3.36,18,4.92,17.34,7c-1,3.15-1.12,4.8-.3,5.53a1.35,1.35,0,0,0,1.35.24c0.38-.09.74-0.16,1.08-0.22l0.08,0c1.9-.41,5.3-0.67,6.48.41a1.78,1.78,0,0,1,.21,2.26,0.83,0.83,0,0,0,.15,1.08,2.34,2.34,0,0,1,.69,1.44A2.3,2.3,0,0,1,26.28,19.37Z"/>
</svg>
