<svg id="logo" xmlns="http://www.w3.org/2000/svg" viewBox="0 0 298.44 180.27">
  <title>logo</title>
  <path d="M257.33,14.87C241.73,4.41,224.31.3,205.73,0.1s-37.81,0-55.81,0V0H98.87A143.06,143.06,0,0,0,73.61,2C32.93,9.33,1.58,44.18.13,85.44-1.18,122.5,15,150.5,47.21,168.9c15.16,8.66,31.91,11.29,49.14,11.32q52,0.09,104,0A135.57,135.57,0,0,0,227,177.81c39.42-7.94,69.68-42.4,71.39-82.51C299.86,61,285.87,34,257.33,14.87ZM238.1,94.16c-1.38,12.38-12,23.1-25,25.24a74.43,74.43,0,0,1-12,.7c-17.37,0-34.2,0-52.2,0v-0.19c-20,0-39.54.26-59.34-.09a29.65,29.65,0,0,1-5-58.84A61,61,0,0,1,96,60H202.55c5.84,0,11.63.44,17.13,2.65C232.4,67.8,239.65,80.2,238.1,94.16Z" transform="translate(-0.06 0)" fill="#fff"/>
</svg>
