<svg id="settings" xmlns="http://www.w3.org/2000/svg" viewBox="0 0 29.3 29.3">
  <title>settings</title>
  <path id="settings-outer" d="M27.8,11.57l-2.06-.35a11.61,11.61,0,0,0-.83-2l1.21-1.7a1.8,1.8,0,0,0-.2-2.33L24.11,3.38a1.8,1.8,0,0,0-1.28-.53,1.78,1.78,0,0,0-1,.34l-1.7,1.21A11.49,11.49,0,0,0,18,3.54l-0.34-2A1.81,1.81,0,0,0,15.88,0H13.31a1.81,1.81,0,0,0-1.79,1.51L11.16,3.59a11.33,11.33,0,0,0-2,.84L7.49,3.22a1.81,1.81,0,0,0-2.33.2L3.33,5.24a1.81,1.81,0,0,0-.2,2.33L4.36,9.29a11.34,11.34,0,0,0-.81,2l-2,.34A1.81,1.81,0,0,0,0,13.42V16a1.81,1.81,0,0,0,1.51,1.79l2.08,0.36a11.33,11.33,0,0,0,.84,2L3.23,21.81a1.8,1.8,0,0,0,.2,2.33L5.25,26a1.8,1.8,0,0,0,1.28.53,1.78,1.78,0,0,0,1-.34l1.72-1.22a11.58,11.58,0,0,0,1.93.8l0.34,2.06a1.81,1.81,0,0,0,1.79,1.51h2.58a1.81,1.81,0,0,0,1.79-1.51l0.35-2.06a11.61,11.61,0,0,0,2-.83l1.7,1.21a1.8,1.8,0,0,0,1.05.34h0a1.8,1.8,0,0,0,1.28-.53l1.82-1.82a1.81,1.81,0,0,0,.2-2.33l-1.21-1.7a11.53,11.53,0,0,0,.83-2l2.06-.34a1.81,1.81,0,0,0,1.51-1.79V13.36A1.79,1.79,0,0,0,27.8,11.57Zm-0.14,4.36a0.16,0.16,0,0,1-.13.16L25,16.53a0.82,0.82,0,0,0-.66.61,9.8,9.8,0,0,1-1.07,2.56,0.83,0.83,0,0,0,0,.9l1.51,2.13a0.17,0.17,0,0,1,0,.21l-1.82,1.82a0.16,0.16,0,0,1-.12,0,0.15,0.15,0,0,1-.09,0L20.6,23.27a0.83,0.83,0,0,0-.9,0,9.8,9.8,0,0,1-2.56,1.07,0.81,0.81,0,0,0-.61.66L16.1,27.53a0.16,0.16,0,0,1-.16.13H13.36a0.16,0.16,0,0,1-.16-0.13L12.77,25a0.82,0.82,0,0,0-.61-0.66,10.17,10.17,0,0,1-2.51-1,0.85,0.85,0,0,0-.42-0.11,0.81,0.81,0,0,0-.48.15L6.62,24.83a0.18,0.18,0,0,1-.09,0,0.16,0.16,0,0,1-.12,0L4.59,23a0.17,0.17,0,0,1,0-.21l1.51-2.11a0.84,0.84,0,0,0,0-.91A9.71,9.71,0,0,1,5,17.21a0.84,0.84,0,0,0-.66-0.61l-2.59-.44A0.16,0.16,0,0,1,1.65,16V13.42a0.16,0.16,0,0,1,.13-0.16l2.55-.43A0.83,0.83,0,0,0,5,12.22a9.79,9.79,0,0,1,1-2.57,0.82,0.82,0,0,0,0-.89L4.49,6.62a0.17,0.17,0,0,1,0-.21L6.33,4.58a0.16,0.16,0,0,1,.12,0,0.15,0.15,0,0,1,.09,0L8.65,6.07a0.84,0.84,0,0,0,.91,0A9.71,9.71,0,0,1,12.11,5a0.84,0.84,0,0,0,.61-0.66l0.44-2.59a0.16,0.16,0,0,1,.16-0.13H15.9a0.16,0.16,0,0,1,.16.13l0.43,2.55A0.83,0.83,0,0,0,17.1,5a9.94,9.94,0,0,1,2.63,1.08,0.83,0.83,0,0,0,.9,0l2.11-1.52a0.18,0.18,0,0,1,.09,0,0.16,0.16,0,0,1,.12,0l1.82,1.82a0.17,0.17,0,0,1,0,.21L23.27,8.7a0.83,0.83,0,0,0,0,.9,9.8,9.8,0,0,1,1.07,2.56,0.81,0.81,0,0,0,.66.61l2.57,0.43a0.16,0.16,0,0,1,.13.16v2.58h0Z"/>
  <path id="settings-ring" d="M14.65,8.32A6.32,6.32,0,1,0,21,14.65,6.33,6.33,0,0,0,14.65,8.32Zm0,11a4.67,4.67,0,1,1,4.67-4.67A4.67,4.67,0,0,1,14.65,19.32Z"/>
</svg>
