<?xml version="1.0" encoding="utf-8"?>
<!-- Generator: Adobe Illustrator 19.2.1, SVG Export Plug-In . SVG Version: 6.00 Build 0)  -->
<svg version="1.1" id="astronaut" xmlns="http://www.w3.org/2000/svg" xmlns:xlink="http://www.w3.org/1999/xlink" x="0px" y="0px"
	 width="196px" height="196px" viewBox="0 0 196 196" style="enable-background:new 0 0 196 196;" xml:space="preserve">
<circle id="astronaut-circle" class="st0" cx="98" cy="98" r="98"/>
<path id="helmet" class="st1" d="M50.9,109.5v20.4c0,3.5,21,6.4,47,6.4c26,0,47-2.9,47-6.4v-20.3c3.7-0.8,6.4-4,6.4-7.9V80.2
	c0-4.3-3.4-7.9-7.7-8.1c-4.8-20.8-23.5-36.3-45.8-36.3h0c-22.3,0-40.9,15.5-45.8,36.3c-4.2,0.3-7.5,3.8-7.5,8.1v21.4
	C44.6,105.5,47.3,108.7,50.9,109.5z M61.2,85c0-9.3,7.6-16.9,16.9-16.9h39.8c9.3,0,16.9,7.6,16.9,16.9v10.3c-3.3,3.7-6.6,7.3-9.9,11
	h-15.7c-1-1.5-2.7-2.5-4.7-2.5c-3.1,0-5.6,2.5-5.6,5.6s2.5,5.6,5.6,5.6c1.7,0,3.2-0.7,4.2-1.9h17.4c1.8,0,2.2-0.6,3.1-1.5l5.6-6.2
	c-0.2,9.2-7.7,16.6-16.9,16.6H78.1c-9.3,0-16.9-7.6-16.9-16.9V85L61.2,85z"/>
<path id="scarf" class="st1" d="M148.2,136.1c-6.4,2.9-26.5,5.1-50.2,5.1c-23.7,0-43.8-2.1-50.2-5.1c-1-0.5-2.1,0.3-2.1,1.4V153
	c0,3.9,23.4,7.1,52.3,7.1c28.9,0,52.3-3.2,52.3-7.1v-15.5C150.3,136.4,149.2,135.7,148.2,136.1z"/>
</svg>
