<svg id="Ebene_1" data-name="Ebene 1" xmlns="http://www.w3.org/2000/svg" xmlns:xlink="http://www.w3.org/1999/xlink" viewBox="0 0 564 1124.67" width="564" height="1124.67">
  <defs>
    <radialGradient id="Unbenannter_Verlauf_195" data-name="Unbenannter Verlauf 195" cx="434.42" cy="33.45" r="41.46" gradientUnits="userSpaceOnUse">
      <stop offset="0.19" stop-color="#fff"/>
      <stop offset="0.32" stop-color="#fcfcfc"/>
      <stop offset="0.42" stop-color="#f2f2f2"/>
      <stop offset="0.52" stop-color="#e0e0e0"/>
      <stop offset="0.61" stop-color="#c8c8c8"/>
      <stop offset="0.7" stop-color="#a9a9a9"/>
      <stop offset="0.79" stop-color="#838383"/>
      <stop offset="0.87" stop-color="#555"/>
      <stop offset="0.95" stop-color="#222"/>
      <stop offset="1"/>
    </radialGradient>
    <radialGradient id="Unbenannter_Verlauf_530" data-name="Unbenannter Verlauf 530" cx="432.82" cy="32.48" r="23.35" gradientUnits="userSpaceOnUse">
      <stop offset="0" stop-color="#fff"/>
      <stop offset="0.06" stop-color="#e7e7e7"/>
      <stop offset="0.18" stop-color="#bfbfbf"/>
      <stop offset="0.31" stop-color="#9f9f9f"/>
      <stop offset="0.43" stop-color="#858585"/>
      <stop offset="0.56" stop-color="#737373"/>
      <stop offset="0.7" stop-color="#686868"/>
      <stop offset="0.86" stop-color="#656565"/>
    </radialGradient>
    <radialGradient id="Unbenannter_Verlauf_512" data-name="Unbenannter Verlauf 512" cx="424.44" cy="30.31" r="26.29" gradientTransform="translate(201.56 -330.45) rotate(52.41)" gradientUnits="userSpaceOnUse">
      <stop offset="0" stop-color="#fff"/>
      <stop offset="0.01" stop-color="#fbfbfb"/>
      <stop offset="0.09" stop-color="#d3d3d3"/>
      <stop offset="0.18" stop-color="#b1b1b1"/>
      <stop offset="0.27" stop-color="#959595"/>
      <stop offset="0.37" stop-color="gray"/>
      <stop offset="0.48" stop-color="#717171"/>
      <stop offset="0.61" stop-color="#686868"/>
      <stop offset="0.8" stop-color="#656565"/>
    </radialGradient>
    <radialGradient id="Unbenannter_Verlauf_512-2" cx="419.75" cy="28.08" r="18.64" gradientTransform="matrix(1, 0, 0, 1, 0, 0)" xlink:href="#Unbenannter_Verlauf_512"/>
    <linearGradient id="Unbenannter_Verlauf_926" data-name="Unbenannter Verlauf 926" x1="443.19" y1="3.65" x2="434.25" y2="17.39" gradientUnits="userSpaceOnUse">
      <stop offset="0" stop-color="#fff"/>
      <stop offset="0.13" stop-color="#f9f9f9"/>
      <stop offset="0.29" stop-color="#eaeaea"/>
      <stop offset="0.47" stop-color="#cfcfcf"/>
      <stop offset="0.67" stop-color="#ababab"/>
      <stop offset="0.87" stop-color="#7c7c7c"/>
      <stop offset="0.96" stop-color="#656565"/>
    </linearGradient>
    <linearGradient id="Unbenannter_Verlauf_1023" data-name="Unbenannter Verlauf 1023" x1="449.59" y1="5.98" x2="442.04" y2="1.42" gradientUnits="userSpaceOnUse">
      <stop offset="0" stop-color="#fff"/>
      <stop offset="0.06" stop-color="#fbeaec"/>
      <stop offset="0.23" stop-color="#f3b7be"/>
      <stop offset="0.39" stop-color="#ec8c98"/>
      <stop offset="0.55" stop-color="#e66b7a"/>
      <stop offset="0.7" stop-color="#e25365"/>
      <stop offset="0.84" stop-color="#e04558"/>
      <stop offset="0.96" stop-color="#df4054"/>
    </linearGradient>
    <linearGradient id="Unbenannter_Verlauf_1100" data-name="Unbenannter Verlauf 1100" x1="451.8" y1="8.21" x2="445.71" y2="1.83" gradientUnits="userSpaceOnUse">
      <stop offset="0" stop-color="#fff"/>
      <stop offset="0" stop-color="#fffdfd"/>
      <stop offset="0.08" stop-color="#f7d1d6"/>
      <stop offset="0.17" stop-color="#f1abb3"/>
      <stop offset="0.26" stop-color="#eb8a96"/>
      <stop offset="0.36" stop-color="#e76f7e"/>
      <stop offset="0.47" stop-color="#e35a6b"/>
      <stop offset="0.59" stop-color="#e14b5e"/>
      <stop offset="0.73" stop-color="#df4356"/>
      <stop offset="0.96" stop-color="#df4054"/>
    </linearGradient>
    <linearGradient id="Unbenannter_Verlauf_1253" data-name="Unbenannter Verlauf 1253" x1="282" y1="178.31" x2="302.38" y2="178.31" gradientUnits="userSpaceOnUse">
      <stop offset="0" stop-color="#f7f8f6"/>
      <stop offset="0.15" stop-color="#f4f5f3"/>
      <stop offset="0.27" stop-color="#e9eae8"/>
      <stop offset="0.39" stop-color="#d7d8d7"/>
      <stop offset="0.5" stop-color="#bfbfbe"/>
      <stop offset="0.61" stop-color="#9f9f9e"/>
      <stop offset="0.72" stop-color="#777877"/>
      <stop offset="0.83" stop-color="#494948"/>
      <stop offset="0.93" stop-color="#141414"/>
      <stop offset="0.96"/>
    </linearGradient>
    <radialGradient id="Unbenannter_Verlauf_1262" data-name="Unbenannter Verlauf 1262" cx="280.75" cy="174.76" r="36.92" gradientUnits="userSpaceOnUse">
      <stop offset="0" stop-color="#f7f8f6"/>
      <stop offset="0.33" stop-color="#f5f6f4"/>
      <stop offset="0.46" stop-color="#eeefed"/>
      <stop offset="0.56" stop-color="#e2e3e1"/>
      <stop offset="0.64" stop-color="#d0d1cf"/>
      <stop offset="0.7" stop-color="#babab9"/>
      <stop offset="0.77" stop-color="#9e9e9d"/>
      <stop offset="0.82" stop-color="#7c7d7c"/>
      <stop offset="0.88" stop-color="#555655"/>
      <stop offset="0.92" stop-color="#2b2b2b"/>
      <stop offset="0.96"/>
    </radialGradient>
  </defs>
  <title>footer-planet</title>
  <path id="colony-planet" d="M417.4,16.1a20.83,20.83,0,0,1,10.2-6s3.4-4.6,6.6-.9c0,0,4.1-.1,5,0.4s15.1,2.2,18.8,21.1c0,0,3.4.8,0,9.2,0,0-1,4.5-1.6,4.9,0,0,.9,8.6-6.6,8.1,0,0-10.5,11.6-27.5,2.5,0,0-3,.6-6-2.4a8.59,8.59,0,0,0-2.9-2.5s-1.1-3.2-.8-4c0,0-6.5-11.1-1.2-23.1C411.4,23.4,409.8,16.4,417.4,16.1Z" fill="url(#Unbenannter_Verlauf_195)"/>
  <ellipse id="planet-crater-1" cx="434.4" cy="18.9" rx="4.8" ry="2.4" fill="url(#Unbenannter_Verlauf_530)"/>
  <ellipse id="planet-crater-2" cx="436.52" cy="39.56" rx="5.2" ry="3.8" transform="translate(138.87 361.3) rotate(-52.41)" fill="url(#Unbenannter_Verlauf_512)"/>
  <circle id="planet-crater-3" cx="422.8" cy="37.7" r="2.9" fill="url(#Unbenannter_Verlauf_512-2)"/>
  <polygon id="planet-flag-stange" points="439.1 9.7 441.15 4.83 441.94 5.29 440.21 10.17 439.1 9.7" fill="url(#Unbenannter_Verlauf_926)"/>
  <path id="planet-flag-1" d="M441.8,4.3l2.8,0.4s2-3.2,1.1-4.1l-3.9-.3v4Z" fill="url(#Unbenannter_Verlauf_1023)"/>
  <path id="planet-flag-2" d="M445.4,5l3.09,1.4s2.07-2.29,1.58-3.54l-3.14-.56Z" fill="url(#Unbenannter_Verlauf_1100)"/>
  <path id="tree-star-1" d="M545.2,21.9c-0.7,4-1.3,4.6-5.4,5.4,4,0.7,4.6,1.3,5.4,5.4,0.7-4,1.3-4.6,5.4-5.4C546.5,26.5,545.9,25.9,545.2,21.9Z" fill="#48434a"/>
  <path id="tree-star-2" d="M340.7,25.3c-0.4,2-.7,2.3-2.7,2.7,2,0.4,2.3.7,2.7,2.7,0.4-2,.7-2.3,2.7-2.7C341.4,27.6,341.1,27.3,340.7,25.3Z" fill="#48434a"/>
  <path id="tree-star-3" d="M231.1,48.3c-0.6,3.1-1.1,3.6-4.3,4.1,3.2,0.6,3.7,1,4.3,4.1,0.6-3.1,1.1-3.6,4.3-4.1C232.2,51.9,231.7,51.4,231.1,48.3Z" fill="#544f5b"/>
  <path id="tree-star-4" d="M113.6,35.4c-0.7,3.9-1.4,4.5-5.4,5.3,4.1,0.7,4.7,1.3,5.4,5.3,0.7-3.9,1.4-4.5,5.4-5.3C114.9,40,114.3,39.4,113.6,35.4Z" fill="#544f5b"/>
  <path id="tree-star-5" d="M124.9,22c-0.4,2-.7,2.3-2.7,2.6,2,0.4,2.3.7,2.7,2.6,0.4-2,.7-2.3,2.7-2.6C125.5,24.2,125.2,24,124.9,22Z" fill="#544f5b"/>
  <path id="tree-star-6" d="M57.3,18.6c-0.5,2.5-.9,2.9-3.4,3.3,2.6,0.5,3,.8,3.4,3.3,0.5-2.5.9-2.9,3.4-3.3C58.2,21.5,57.8,21.1,57.3,18.6Z" fill="#544f5b"/>
  <path id="tree-star-7" d="M503.7,0c-0.4,2.4-.8,2.7-3.2,3.2,2.4,0.4,2.7.8,3.2,3.2,0.4-2.4.8-2.7,3.2-3.2C504.5,2.7,504.1,2.4,503.7,0Z" fill="#48434a"/>
  <path id="tree-cloud-1" d="M177.2,146.2H202s2.6-8.4-7.2-7.7c0,0-7.2-7.5-13,1.7C181.8,140.3,176.1,140.6,177.2,146.2Z" fill="#c9c7c8"/>
  <path id="tree-cloud-2" d="M153.2,142.4h32s3.4-10.9-9.2-9.9c0,0-9.2-9.6-16.8,2.2C159.2,134.8,151.9,135.2,153.2,142.4Z" fill="#f7f8f6"/>
  <path id="tree-cloud-3" d="M368.8,142.4h32s3.4-10.9-9.2-9.9c0,0-9.2-9.6-16.8,2.2C374.8,134.8,367.4,135.2,368.8,142.4Z" fill="#f7f8f6"/>
  <path id="tree-cloud-4" d="M328.4,147.3H347s2-6.3-5.4-5.8c0,0-5.4-5.6-9.8,1.3C331.9,142.8,327.6,143,328.4,147.3Z" fill="#c9c7c8"/>
  <path id="tree-base" d="M0,210.4s256.2-57.9,564,0v914.27H0V210.4Z" fill="#df4054"/>
  <polygon id="tree-1" points="124.38 183.95 127.54 184.44 122.35 177.61 123.76 174.56 115.76 166.81 109.33 175.98 111.4 178.69 107.64 186.4 110.64 185.29 108.34 191.55 115.61 190.84 116.08 195.61 118.57 195.37 121.05 195.12 120.48 190.36 127.85 189.63 124.38 183.95" fill="#df4054"/>
  <polygon id="tree-2" points="139.5 187.19 141.43 187.57 138.22 182.1 139.15 179.66 134.07 173.37 130.07 180.33 131.34 182.61 128.96 188.48 130.82 187.82 129.37 192.67 133.96 192.33 134.23 196.08 135.73 195.97 137.32 195.86 137.05 192.1 141.64 191.77 139.5 187.19" fill="#df4054"/>
  <polygon id="tree-3" points="150.67 187.51 152.09 187.83 149.88 184.15 150.59 182.61 147.26 178.49 144.4 182.95 145.28 184.41 143.5 188.31 144.88 187.83 143.74 190.9 146.94 190.72 146.98 193.22 148.08 193.16 149.18 193.1 148.94 190.61 152.13 190.43 150.67 187.51" fill="#df4054"/>
  <polygon id="tree-4" points="245.34 180.31 247.05 180.67 244.56 176.93 245.43 175.41 241.42 171.2 237.63 175.59 238.66 177.07 236.26 180.93 237.95 180.49 236.42 183.53 240.42 183.43 240.48 185.93 241.78 185.9 243.18 185.86 243.02 183.37 247.02 183.27 245.34 180.31" fill="#df4054"/>
  <polygon id="tree-5" points="333.17 177.44 335.65 178.13 332.03 171.34 333.48 168.63 327.58 160.74 321.68 168.63 323.02 171.34 319.4 178.13 321.99 177.44 319.5 183.03 325.51 183.03 325.51 187.53 327.58 187.53 329.54 187.53 329.54 183.03 335.55 183.03 333.17 177.44" fill="#df4054"/>
  <polygon id="tree-6" points="389.13 178.93 392.18 179.84 388.2 172.05 390.1 169.18 383.41 160 375.63 168.19 377.13 171.29 372.12 178.47 375.26 177.98 371.95 183.87 379.34 184.38 378.89 189.36 381.39 189.53 383.98 189.71 384.23 184.71 391.61 185.22 389.13 178.93" fill="#df4054"/>
  <polygon id="tree-7" points="417.46 188.4 419.03 188.92 417.01 185.16 418.01 183.83 414.73 179.47 410.93 183.29 411.72 184.75 409.15 188.17 410.78 187.89 409.06 190.67 412.65 190.94 412.47 193.33 413.67 193.43 414.96 193.53 415.15 191.13 418.74 191.41 417.46 188.4" fill="#df4054"/>
  <polygon id="tree-8" points="474.7 188.06 477.88 189.26 474.05 181.03 476.31 178.19 469.74 168.42 461.02 176.32 462.43 179.61 456.73 186.68 460.2 186.29 456.26 192.16 464.11 193.12 463.4 198.07 466.08 198.4 468.66 198.71 469.27 193.75 477.01 194.69 474.7 188.06" fill="#df4054"/>
  <polygon id="tree-9" points="454.2 189.02 455.76 189.56 453.88 184.87 454.94 183.16 451.63 177.64 447.37 182.47 448.11 184.34 445.4 188.61 447.04 188.36 445.21 191.81 449 192.16 448.72 195.14 450.02 195.26 451.31 195.38 451.58 192.39 455.47 192.75 454.2 189.02" fill="#df4054"/>
  <polygon id="tree-10" points="487.76 194.17 489.11 194.65 487.52 191.22 488.38 190.02 485.68 185.85 482.03 189.22 482.56 190.6 480.18 193.53 481.61 193.4 479.99 195.82 483.27 196.23 483 198.31 484.1 198.45 485.19 198.59 485.45 196.5 488.72 196.91 487.76 194.17" fill="#df4054"/>
  <polygon id="tree-11" points="322.38 180.47 323.83 180.87 321.81 176.67 322.6 174.97 319.23 169.97 315.87 174.97 316.76 176.67 314.63 180.87 316.09 180.47 314.75 183.97 318.11 183.97 318.11 186.77 319.23 186.77 320.36 186.77 320.36 183.97 323.72 183.97 322.38 180.47" fill="#df4054"/>
  <polygon id="tree-12" points="312.3 182.7 313.3 183 311.9 179.8 312.4 178.6 310.1 174.9 307.8 178.6 308.3 179.8 306.9 183 307.9 182.7 306.9 185.3 309.3 185.3 309.3 187.4 310.1 187.4 310.9 187.4 310.9 185.3 313.3 185.3 312.3 182.7" fill="#df4054"/>
  <polygon id="tree-13" points="104.16 188.7 106.16 189.02 102.79 183.94 103.65 181.71 98.41 175.87 94.41 182.62 95.77 184.63 93.36 190.28 95.35 189.56 93.91 194.08 98.62 193.62 98.88 197.2 100.48 197.05 102.08 196.89 101.73 193.32 106.45 192.86 104.16 188.7" fill="#df4054"/>
  <polygon id="tree-14" points="91.2 191.87 92.54 192.11 90.21 188.66 90.73 187.09 87.33 183.16 84.97 187.78 85.84 189.18 84.49 193.07 85.74 192.52 84.9 195.64 87.78 195.3 88.08 197.78 89.07 197.66 90.06 197.54 89.77 195.06 92.75 194.7 91.2 191.87" fill="#df4054"/>
  <path id="radar-stand" d="M282,184.67h5v-11.6s-2.5-2.5-5,0v11.6Z" fill="url(#Unbenannter_Verlauf_1253)"/>
  <path id="radar-circle" d="M283.3,156.07s-5.3,18.4,15.5,16.5C298.8,172.47,295.6,162.67,283.3,156.07Z" fill="url(#Unbenannter_Verlauf_1262)"/>
  <path id="radar-shadow" d="M283.3,156.07l0,0s7.1,7.2,15.41,16.48h0.05C298.8,172.47,294.75,161.21,283.3,156.07Z" fill="#e5e5e5"/>
  <path id="radar-antenna" d="M290.95,164l7.1-6.8a0.49,0.49,0,0,1,.5.5c0,0.3-7,6.6-7,6.6Z" fill="#c9c7c8"/>
  <path d="M291.45,163.29a0.69,0.69,0,0,0-.68.58l0.75,0.81a0.69,0.69,0,0,0,.62-0.68A0.7,0.7,0,0,0,291.45,163.29Z" fill="#a8a8a8"/>
</svg>
