<svg id="hero" xmlns="http://www.w3.org/2000/svg" xmlns:xlink="http://www.w3.org/1999/xlink" viewBox="0 0 564 331.1">
  <defs>
    <linearGradient id="Unbenannter_Verlauf_46" data-name="Unbenannter Verlauf 46" x1="238.55" y1="211.02" x2="304.28" y2="116.07" gradientUnits="userSpaceOnUse">
      <stop offset="0" stop-color="#e13f57"/>
      <stop offset="0.19" stop-color="#e8697c"/>
      <stop offset="0.58" stop-color="#f4b9c2"/>
      <stop offset="0.86" stop-color="#fcecee"/>
      <stop offset="1" stop-color="#fff"/>
    </linearGradient>
    <linearGradient id="Unbenannter_Verlauf_264" data-name="Unbenannter Verlauf 264" x1="165.08" y1="194.35" x2="191.48" y2="154.81" gradientUnits="userSpaceOnUse">
      <stop offset="0" stop-color="#ea828e"/>
      <stop offset="0.14" stop-color="#eb8994"/>
      <stop offset="0.35" stop-color="#ee9ca5"/>
      <stop offset="0.59" stop-color="#f4bbc1"/>
      <stop offset="0.86" stop-color="#fbe6e8"/>
      <stop offset="1" stop-color="#fff"/>
    </linearGradient>
    <linearGradient id="Unbenannter_Verlauf_49" data-name="Unbenannter Verlauf 49" x1="344.84" y1="182.68" x2="408" y2="106.3" xlink:href="#Unbenannter_Verlauf_46"/>
    <linearGradient id="Unbenannter_Verlauf_242" data-name="Unbenannter Verlauf 242" x1="278.6" y1="133.12" x2="277.11" y2="253.5" gradientUnits="userSpaceOnUse">
      <stop offset="0" stop-color="#815970"/>
      <stop offset="0.33" stop-color="#78566c"/>
      <stop offset="0.89" stop-color="#5e4d61"/>
      <stop offset="1" stop-color="#584b5e"/>
    </linearGradient>
    <linearGradient id="Unbenannter_Verlauf_536" data-name="Unbenannter Verlauf 536" x1="95.43" y1="41.91" x2="233.61" y2="224.92" gradientUnits="userSpaceOnUse">
      <stop offset="0" stop-color="#fff"/>
      <stop offset="0.09" stop-color="#e1e0e2"/>
      <stop offset="0.27" stop-color="#aca9ad"/>
      <stop offset="0.44" stop-color="#807b82"/>
      <stop offset="0.6" stop-color="#5e5760"/>
      <stop offset="0.75" stop-color="#453e48"/>
      <stop offset="0.89" stop-color="#362e39"/>
      <stop offset="1" stop-color="#312934"/>
    </linearGradient>
    <linearGradient id="Unbenannter_Verlauf_369" data-name="Unbenannter Verlauf 369" x1="202.9" y1="26.96" x2="391.05" y2="206.4" gradientUnits="userSpaceOnUse">
      <stop offset="0" stop-color="#fff"/>
      <stop offset="0.04" stop-color="#e6e5e6"/>
      <stop offset="0.12" stop-color="#bcb9bd"/>
      <stop offset="0.21" stop-color="#969298"/>
      <stop offset="0.3" stop-color="#777279"/>
      <stop offset="0.4" stop-color="#5d5760"/>
      <stop offset="0.5" stop-color="#4a434c"/>
      <stop offset="0.62" stop-color="#3c343e"/>
      <stop offset="0.77" stop-color="#332c36"/>
      <stop offset="1" stop-color="#312934"/>
    </linearGradient>
    <radialGradient id="Unbenannter_Verlauf_215" data-name="Unbenannter Verlauf 215" cx="299.25" cy="38.65" r="238.76" gradientUnits="userSpaceOnUse">
      <stop offset="0.83" stop-color="#804b60"/>
      <stop offset="0.88" stop-color="#6f4c61"/>
      <stop offset="0.96" stop-color="#5c4d63"/>
    </radialGradient>
    <linearGradient id="Unbenannter_Verlauf_14" data-name="Unbenannter Verlauf 14" x1="274.81" y1="106.9" x2="289.57" y2="111.33" gradientUnits="userSpaceOnUse">
      <stop offset="0" stop-color="#5d3e4d"/>
      <stop offset="1"/>
    </linearGradient>
  </defs>
  <title>hero</title>
  <g id="mountain-top">
    <polygon id="mountain-top-middle" points="237.1 188.5 293.2 141.9 263.5 199.6 237.1 188.5" fill="url(#Unbenannter_Verlauf_46)"/>
    <path id="mountain-top-left" d="M158.7,184l34-14.4-10.2,12s-1.9,10.2-2.4,10.1-10.4-.2-15,1C165,192.8,161.6,186.2,158.7,184Z" fill="url(#Unbenannter_Verlauf_264)"/>
    <path id="mountain-top-right" d="M342.4,168.2l39-28.1s-1.6,11.4-2.4,13.5c0,0-7.4,14.2-7.8,14.6,0,0-8.8,10.8-9.4,10.9Z" fill="url(#Unbenannter_Verlauf_49)"/>
  </g>
  <g id="blast">
    <path id="blast-left" d="M229.5,297.1s41.2-72.2,52.5-162.4c0,0-3.6,92-48.9,163.1Z"/>
    <path id="blast-right" d="M321.5,291.9S287.6,183.5,282,139.5c0,0,8.8,111.4,37.9,158.3A17.35,17.35,0,0,1,321.5,291.9Z"/>
    <path id="blast-inner" d="M249.7,257.6S271,212,278.1,160.7l3.5-23.5s12.6,101.6,22.9,113.4l-12.9,18s-8-54.8-8.8-82.8c0,0-2.4,64.1-.9,85.9l-17.4-1.4s2.4-31.2,5.6-43.6c0,0-10.5,36.2-11,40.2Z" fill="url(#Unbenannter_Verlauf_242)"/>
  </g>
  <g id="mountains">
    <path id="mountains-left" d="M192.6,169.6l70.9,30L275,177.2s-7.8,47.4-25.4,77.2l-78.4-9.6-6.3-15.7,15.2-37.5,2.4-10.1Z" fill="url(#Unbenannter_Verlauf_536)"/>
    <polygon id="mountains-right" points="293.5 141.3 361.9 179.1 371.2 168.2 379 153.6 381.4 140.1 423.8 158.8 461 160.6 474.3 167.9 484.2 174.6 396.8 256.6 329.2 244.2 315 254.5 306.7 245.9 285.1 157.7 293.5 141.3" fill="url(#Unbenannter_Verlauf_369)"/>
  </g>
  <g id="smoke">
    <path id="smoke-outer" d="M0,30.2s22.5-3.4,32.5,27.1c0,0,8.7,30.8,2.7,36.7,0,0,18.8,2,21.3,43.8,0,0,18.5,15.3,22,25.8,0,0,21.5-21.5,62.5,49.5,0,0,23.4,29.4,35.7,43.5,0,0,115.8,32,144.8,11.5,0,0,30.8-28.5,59.9-17,0,0,21.8,11.5,33.7-4L547.8,127.2s4.7-15.6,16.2-18.1v222H0V30.2Z"/>
    <path id="smoke-inner" d="M32.5,57.2s34.5,13,33,47c0,0-13,3-14,5.5,0,0,27.5-9,34,19.5,0,0,27.5-2,42,33.5,0,0-14,4.5-14.5,6.5s27.5-15,52,23.5c0,0,42.5-12,56.5,39.5,0,0-28.5-3-49.5,9.5,0,0,50-22,79.5,15S304,245.2,304,245.2s8.5,1.5,12,4.5c0,0,18-22.5,41-21s35.5,15,39.5,24.5a22,22,0,0,0,0-11s17-16.5,24-15c0,0-1.7-55.4,55.4-57.7,0,0,1.2.2-3-2.5,0,0,4.6-5.5,13.1-3.2,0,0,13-38.2,47-33.2,0,0,3.4-12.1,17.2-9.1,0,0-8.7,15.1-.2,34.1l14,2s-40.5-3.5-42.5,40.5c0,0-23,9-29.5,19,0,0,14,3.5,19,9.5,0,0-39.5-22.5-55.5,18,0,0-41.8-6.8-55,21,0,0-33.3-28.3-68.5,4.9,0,0-10.5,8.6-12.5,33.6,0,0-12.9-5.6-23.5-4,0,0-24.2.6-35.5,14,0,0-16.5-21.5-49-17.5,0,0-22-51.5-79.5-28,0,0,20.5-15,27-15.5,0,0-11.8-21.1-32-17.5,0,0,3.4-32.2-14-57,0,0-10.1-14.6-34.5-15,0,0-22.5.5-37,9,0,0,20-13.5,23-15,0,0-3.2-14-12.5-18,0,0-1.8-23.9-10.5-36.2,0,0-5-8.8-19-17.2C22.5,86.2,35,60.2,32.5,57.2Z" fill="url(#Unbenannter_Verlauf_215)"/>
  </g>
  <g id="stars">
    <path id="star8" d="M463.6,15s2,3.8,4.6,4.2a10,10,0,0,0-4.6,4.7,8.54,8.54,0,0,0-4.7-4.6C459,19.3,462.8,17.9,463.6,15Z"/>
    <path id="star7" d="M483.6,10.5s1.1,2.4,2.6,2.6a6.06,6.06,0,0,0-2.6,2.9,5.71,5.71,0,0,0-2.6-2.9A4.58,4.58,0,0,0,483.6,10.5Z"/>
    <path id="star6" d="M411.4,5s1.5,2.6,3.4,2.8a7.28,7.28,0,0,0-3.4,3.2A6.16,6.16,0,0,0,408,7.9S410.7,6.9,411.4,5Z"/>
    <path id="star5" d="M358,26.6s0.9,1.5,2,1.6a4,4,0,0,0-2,1.8,3.79,3.79,0,0,0-2-1.8A3.42,3.42,0,0,0,358,26.6Z"/>
    <path id="star4" d="M211.4,5s1.5,3.5,3.4,3.8a8.1,8.1,0,0,0-3.4,4.2s-1-3.1-3.4-4.2A6.55,6.55,0,0,0,211.4,5Z"/>
    <path id="star3" d="M154.9,20s2.2,4.3,5.1,4.7c0,0-3.8,1.8-5.1,5.3a10,10,0,0,0-5.1-5.2S153.9,23.2,154.9,20Z"/>
    <path id="star2" d="M82.9,0S85.1,4.3,88,4.7c0,0-3.8,1.8-5.1,5.3a10,10,0,0,0-5.1-5.2S81.9,3.2,82.9,0Z"/>
    <path id="star1" d="M48.9,18.7A2.51,2.51,0,0,0,50.3,20a3.33,3.33,0,0,0-1.4,1.4A2.75,2.75,0,0,0,47.5,20,3.71,3.71,0,0,0,48.9,18.7Z"/>
  </g>
  <g id="clouds">
    <path id="red-cloud-left" d="M178.4,97.2h43.4c0.1-1,.1-0.8.1-1,0-1.8-1.8-3.4-4-3.4a4.25,4.25,0,0,0-3,1.1,4.12,4.12,0,0,0-3.2-1.9,3.82,3.82,0,0,0-1.8-1.2,3.37,3.37,0,0,0-3.4-2.2,4,4,0,0,0-2.8,1.2,6.75,6.75,0,0,0-1.4-.2,5.27,5.27,0,0,0-4.1,1.8c-0.1-2-2.1-3.7-4.5-3.7a5.12,5.12,0,0,0-2.8.8c-0.1-1.9-2-3.4-4.3-3.4s-4.3,1.6-4.3,3.6a3.55,3.55,0,0,0,.2,1c-0.3,0-.6-0.1-0.9-0.1-2.8,0-5,2.1-5,4.4A4.8,4.8,0,0,0,178.4,97.2Z"/>
    <path id="white-cloud-left" d="M192.9,101.2h30.2a8.14,8.14,0,0,0,.1-0.9,2.8,2.8,0,0,0-2.8-2.8,2.72,2.72,0,0,0-2.1.9,2.65,2.65,0,0,0-2.2-1.6,2.56,2.56,0,0,0-1.3-1,2.35,2.35,0,0,0-2.3-1.9,2.28,2.28,0,0,0-1.9,1,3,3,0,0,0-1-.2,3.32,3.32,0,0,0-2.8,1.5,3.2,3.2,0,0,0-3.2-3.1,3.16,3.16,0,0,0-1.9.7,3,3,0,0,0-6,.2c0,0.3.1,0.6,0.1,0.8-0.2,0-.4-0.1-0.6-0.1a3.72,3.72,0,0,0-3.5,3.7A4.13,4.13,0,0,0,192.9,101.2Z"/>
    <path id="red-cloud-right" d="M415.1,98.2a3.68,3.68,0,0,0-3.9-2.9,2.77,2.77,0,0,0-.9.1,3.31,3.31,0,0,0-4.9-.4,4.05,4.05,0,0,0-6.8-2.5,5.08,5.08,0,0,0,.3-1.7,6.63,6.63,0,0,0-13-1.5c-0.2,0-.4-0.1-0.7-0.1a4.56,4.56,0,0,0-4.5,3.4,4.19,4.19,0,0,0-1.6-.4,3.6,3.6,0,0,0-3.7,3.1,2.2,2.2,0,0,0-.8-0.1,2.88,2.88,0,0,0-2.9,2.8v0.1l43.4,0.1h0Z"/>
    <path id="white-cloud-right" d="M433.1,93.2a3.36,3.36,0,0,0-3.6-2.8,2,2,0,0,0-.8.1,3,3,0,0,0-2.4-1.2,2.72,2.72,0,0,0-2.1.9,3.68,3.68,0,0,0-6.3-2.4,4.68,4.68,0,0,0,.2-1.7,6.08,6.08,0,0,0-12-1.4c-0.2,0-.4-0.1-0.6-0.1a4.3,4.3,0,0,0-4.2,3.3,4,4,0,0,0-1.5-.3,3.37,3.37,0,0,0-3.4,3,1.7,1.7,0,0,0-.7-0.1,2.75,2.75,0,0,0-2.7,2.7v0.1l40.1-.1h0Z"/>
  </g>
  <g id="rocket">
    <path id="rocket-body" d="M287.5,115s0.5-11.1-.7-12.8a45,45,0,0,0-4.8-4.9,43.41,43.41,0,0,0-4.9,4.9c-1.2,1.7-.7,12.8-0.7,12.8s-1.4,2.9-1.3,3.5c0.1,0.9,2.6,0,3.2-.6h1.6l0.1,1.9h3.9l0.1-1.9h1.6c0.6,0.6,3,1.5,3.2.6C288.9,117.9,287.5,115,287.5,115Z" fill="url(#Unbenannter_Verlauf_14)"/>
    <circle id="glass" cx="282" cy="107.3" r="1.9"/>
    <path id="outer-flame" d="M279.5,120.2h4.8a1.29,1.29,0,0,0-.3,1.7,0.94,0.94,0,0,0-.3,1s-1,.5-0.5.9c0,0-.4,0-0.4.9,0,0-.9-1.4-1.5-0.3,0,0-.3-1.1-0.8-0.5,0,0,.3-1.6-0.5-0.9,0,0,.1-1.5-0.4-1.2A1.12,1.12,0,0,0,279.5,120.2Z"/>
    <path id="inner-flame" d="M280.2,120.2s1.2,0.8.4,1.1c0,0,.7.5,0.2,1a0.91,0.91,0,0,1,.7-0.3,1.18,1.18,0,0,1,.5.6s0.5-1,1-.4c0,0-.2-1.1.3-0.7a1.63,1.63,0,0,1-.3-0.6,1.87,1.87,0,0,1,.7-0.6l-3.5-.1h0Z"/>
  </g>
  <text id="hero-text" transform="translate(242.94 45)" font-size="28" font-family="Montserrat" font-weight="700" letter-spacing="-1" style="isolation: isolate">L<tspan x="14.25" y="0">OGO</tspan></text>
</svg>
