<?xml version="1.0" encoding="utf-8"?>
<!-- Generator: Adobe Illustrator 19.2.1, SVG Export Plug-In . SVG Version: 6.00 Build 0)  -->
<svg version="1.1" id="paper" xmlns="http://www.w3.org/2000/svg" xmlns:xlink="http://www.w3.org/1999/xlink" x="0px" y="0px"
	 width="237.6px" height="325px" viewBox="0 0 237.6 325" style="enable-background:new 0 0 237.6 325;" xml:space="preserve">
<style type="text/css">
	.st0{fill:#da5463;}
</style>
<path id="paper-clip" class="st0" d="M190,325h5.5c1.7,0,3.3-0.7,4.5-2l36.1-40.4c1-1.1,1.5-2.5,1.5-4v-4.7H190L190,325L190,325z"/>
<path id="paper-body" class="st0" d="M231.6,0H6C2.7,0,0,2.7,0,6v313c0,3.3,2.7,6,6,6h168v-59.1c0-4.4,3.6-8,8-8h55.6V6
	C237.6,2.7,234.9,0,231.6,0z M87.2,261.4H33.1c-4.4,0-8-3.6-8-8s3.6-8,8-8h54.1c4.4,0,8,3.6,8,8C95.2,257.8,91.6,261.4,87.2,261.4z
	 M204.5,200.8H33.1c-4.4,0-8-3.6-8-8s3.6-8,8-8h171.4c4.4,0,8,3.6,8,8C212.5,197.2,208.9,200.8,204.5,200.8z M204.5,140.2H33.1
	c-4.4,0-8-3.6-8-8s3.6-8,8-8h171.4c4.4,0,8,3.6,8,8S208.9,140.2,204.5,140.2z M204.5,79.6H33.1c-4.4,0-8-3.6-8-8s3.6-8,8-8h171.4
	c4.4,0,8,3.6,8,8S208.9,79.6,204.5,79.6z"/>
</svg>
