<?xml version="1.0" encoding="utf-8"?>
<!-- Generator: Adobe Illustrator 19.2.1, SVG Export Plug-In . SVG Version: 6.00 Build 0)  -->
<svg version="1.1" id="signal" xmlns="http://www.w3.org/2000/svg" xmlns:xlink="http://www.w3.org/1999/xlink" x="0px" y="0px"
	 width="196px" height="196px" viewBox="0 0 196 196" style="enable-background:new 0 0 196 196;" xml:space="preserve">
<style type="text/css">
	.st0{fill:#FFFFFF;}
</style>
<circle id="signal-circle" cx="98" cy="98" r="98"/>
<g id="signal-inner">
	<path id="wave-3" class="st0" d="M121.9,106.5c-2.2-9.3-7.7-17.5-15.5-23.1c-7.7-5.6-17.3-8.3-26.8-7.5c-0.3,0-0.5,0.1-0.7,0.1
		c-2.1,0.4-3.2,1.5-2.9,3l0.8,4.8c0.4,2.6,2.5,2.3,3.4,2.2c0.1,0,0.2,0,0.4,0c14.5-1.1,27.6,8.3,31.2,22.3l0,0.1
		c0.2,0.8,0.7,2.8,3,2.4l5.1-0.9c0.9-0.2,1.5-0.5,1.8-1c0.5-0.7,0.3-1.6,0.1-2.3C121.9,106.7,121.9,106.6,121.9,106.5z"/>
	<path id="wave-2" class="st0" d="M120.7,63.5c-13-9.4-28.9-13.6-44.8-11.9c-0.1,0-0.2,0-0.3,0c-0.4,0-0.8,0.1-1.2,0.1
		c-1.9,0.3-2.8,1.2-2.6,2.7l0.9,5.4c0.4,2.3,3.2,2.1,4.7,1.9l0.3,0C105,59,130.1,77.3,136.1,104c0.2,0.8,0.7,3.1,2.9,2.7l5.7-1
		c0.6-0.1,1-0.4,1.3-0.8c0.5-0.8,0.4-1.9,0.2-2.6C142.8,86.7,133.7,72.9,120.7,63.5z"/>
	<path id="wave-1" class="st0" d="M169.8,97.5c-4.6-21.6-17-40.6-34.9-53.6C117,31,95.1,25.2,73.2,27.6l-0.2,0c-0.5,0-1,0.1-1.6,0.2
		c-2.7,0.5-3.9,1.5-3.6,3.2l0.9,5.1c0.4,2.6,3.4,2.1,5.3,1.8c0.4-0.1,0.8-0.1,1.1-0.2c40-4,76.4,22.5,84.8,61.8c0,0.1,0,0.2,0.1,0.3
		c0.2,1.1,0.6,3.3,3.3,2.8l4.7-0.8c0.7-0.1,1.3-0.5,1.6-1C170.2,99.8,170,98.4,169.8,97.5z"/>
	
		<ellipse id="signal-inner-circle" transform="matrix(0.9855 -0.1699 0.1699 0.9855 -18.4969 15.7622)" class="st0" cx="82.8" cy="115.9" rx="14.4" ry="14.4"/>
</g>
</svg>
