<?xml version="1.0" encoding="utf-8"?>
<!-- Generator: Adobe Illustrator 19.2.1, SVG Export Plug-In . SVG Version: 6.00 Build 0)  -->
<svg version="1.1" id="stamp" xmlns="http://www.w3.org/2000/svg" xmlns:xlink="http://www.w3.org/1999/xlink" x="0px" y="0px"
	 width="523.4px" height="612px" viewBox="0 0 523.4 612" style="enable-background:new 0 0 523.4 612;" xml:space="preserve">
<style type="text/css">
	.st0{fill:#da5463;}
</style>
<path id="stamp-bottom" class="st0" d="M484,555.3H39.4c-8,0-14.6,6.5-14.6,14.6v27.6c0,8,6.5,14.6,14.6,14.6H484
	c8,0,14.6-6.5,14.6-14.6v-27.6C498.6,561.8,492.1,555.3,484,555.3z"/>
<path id="stamp-body" class="st0" d="M509.8,433c-1.5-8.6-5.2-19.2-13.6-28.6c-11.8-13.2-29.4-19.8-52.2-19.8
	c-50.4,0-130.5-34.7-130.5-127.9c0-50.5,30.5-111.1,30.8-111.7c0.1-0.2,0.2-0.4,0.3-0.6c8.6-14.7,13.2-31.4,13.2-48.4
	c0-52.9-43.1-96-96-96s-96,43.1-96,96c0,17,4.5,33.6,13.2,48.4c0.1,0.2,0.2,0.4,0.3,0.6c0.3,0.6,30.8,61.3,30.8,111.7
	c0,93.2-80,127.9-130.5,127.9c-22.8,0-40.4,6.7-52.2,19.8c-8.4,9.4-12.1,20-13.6,28.6C6,433.5,0,439.8,0,447.5v80.3
	c0,8,6.5,14.6,14.6,14.6h494.3c8,0,14.6-6.5,14.6-14.6v-80.3C523.4,439.8,517.4,433.5,509.8,433z"/>
</svg>
