<?xml version="1.0" encoding="utf-8"?>
<!-- Generator: Adobe Illustrator 19.2.1, SVG Export Plug-In . SVG Version: 6.00 Build 0)  -->
<svg version="1.1" id="telescope" xmlns="http://www.w3.org/2000/svg" xmlns:xlink="http://www.w3.org/1999/xlink" x="0px" y="0px"
	 viewBox="0 0 196 196" style="enable-background:new 0 0 196 196;" xml:space="preserve">
<circle id="telescope-circle" class="st0" cx="98" cy="98" r="98"/>
<path id="telescope-body" d="M162.4,73.6l-49.1,27.1v12.8l26.3,38.1c1.6,2.3,1.2,5.5-1.1,7.1c-0.9,0.6-1.9,0.9-2.9,0.9
	c-1.6,0-3.3-0.8-4.3-2.2l-22.8-33.2v23.8c0,2.8-2.3,5.1-5.1,5.1s-5.1-2.3-5.1-5.1v-23.8l-22.6,33.2c-1,1.4-2.5,2.2-4.1,2.2
	c-1,0-1.9-0.3-2.8-0.9c-2.3-1.6-2.9-4.8-1.3-7.1l26.1-38.1V112l-8.7,4.8L64.7,80.5l77.9-43.2c1-0.6,2.2-0.8,3.3-0.8
	c2.4,0,4.6,1.2,5.9,3.4l13.5,24.5C167,67.7,165.6,71.8,162.4,73.6z M74.7,122.4l1.2-0.7l0,0L55.8,85.5l0,0l-1.2,0.7
	c-6.1,3.4-8.2,11-4.9,17.1l1.3,2.3l-10.5,5.8l-1-1.8c-1.4-2.5-4.5-3.4-6.9-2c-2.5,1.4-3.4,4.5-2,6.9l6.9,12.5
	c0.9,1.7,2.7,2.6,4.5,2.6c0.8,0,1.7-0.2,2.5-0.6c2.5-1.4,3.4-4.5,2-6.9l-1-1.8l10.5-5.8l1.7,3C61,123.5,68.6,125.7,74.7,122.4z"/>
</svg>
