<svg id="facebook" xmlns="http://www.w3.org/2000/svg" viewBox="0 0 216.06 42.76">
  <title>facebook</title>
  <g id="facebook-body">
    <path d="M111.23,20.77a9.87,9.87,0,0,0-4.37,1.18V35.44a28.41,28.41,0,0,0,3.15.12c4.28,0,4.87-2,4.87-4.7V24.41C114.88,22.39,114.21,20.77,111.23,20.77ZM82.79,20c-3,0-3.65,1.63-3.65,3.65v1.13h7.29V23.68C86.44,21.66,85.76,20,82.79,20Zm-55.09,14a2.13,2.13,0,0,0,2.42,2.43,8.87,8.87,0,0,0,4.14-1.18v-3.2h-3.9C28.51,32.12,27.7,32.46,27.7,34.07Zm111.19-13.3c-3,0-4,1.62-4,3.65v7.38c0,2,1,3.66,4,3.66s4-1.63,4-3.66V24.41C142.9,22.39,141.86,20.77,138.89,20.77ZM13.12,42.34H4.37V21.17H0v-7.3H4.37V9.49c0-6,2.47-9.49,9.48-9.49h5.84V7.3H16c-2.73,0-2.91,1-2.91,2.92v3.65h6.61L19,21.17H13.12V42.34ZM43,42.4H35.73l-0.32-1.84a16.71,16.71,0,0,1-8.26,2.14C21.8,42.7,19,39.13,19,34.19c0-5.83,3.32-7.91,9.26-7.91h6V25c0-3-.34-3.85-4.92-3.85H21.87l0.73-7.3h8.18C40.82,13.87,43,17,43,25.08V42.4ZM67.81,21.7a41.76,41.76,0,0,0-8-.95c-3.92,0-5.11.87-5.11,4.19v6.3c0,3.33,1.19,4.2,5.11,4.2a41.62,41.62,0,0,0,8-1v7.12a38.69,38.69,0,0,1-8.75,1.13c-9.39,0-13.13-4.94-13.13-12.07V25.55c0-7.14,3.73-12.09,13.13-12.09a38.53,38.53,0,0,1,8.75,1.13V21.7Zm27.38,9h-16v0.59c0,3.33,1.19,4.2,5.11,4.2a51,51,0,0,0,10.2-1v7.12a46,46,0,0,1-10.93,1.13c-9.39,0-13.13-4.94-13.13-12.07V24.82c0-6.24,2.77-11.36,12.4-11.36s12.39,5.05,12.39,11.36v5.84Zm28.44,0.13c0,6.9-2,11.93-13.91,11.93a66,66,0,0,1-11.6-1.11V2.19l8.75-1.46V14.52a19.85,19.85,0,0,1,6.56-1.06c8.75,0,10.2,3.92,10.2,10.22V30.8Zm28,0.15c0,5.95-2.46,11.72-12.73,11.72s-12.78-5.77-12.78-11.72V25.2c0-6,2.5-11.72,12.78-11.72s12.73,5.77,12.73,11.72v5.74Zm28,0c0,5.95-2.46,11.72-12.73,11.72s-12.78-5.77-12.78-11.72V25.2c0-6,2.5-11.72,12.78-11.72s12.73,5.77,12.73,11.72v5.74Zm28.75,11.4h-9.48l-8-13.38V42.34h-8.75V2.19l8.75-1.46V26.58l8-12.71h9.48l-8.75,13.87ZM166.91,20.77c-3,0-4,1.62-4,3.65v7.38c0,2,1,3.66,4,3.66s4-1.63,4-3.66V24.41C170.92,22.39,169.87,20.77,166.91,20.77Z" fill="#fff"/>
    <path d="M213.41,37.35a2.71,2.71,0,1,1-2.68,2.7,2.66,2.66,0,0,1,2.68-2.7h0Zm0,0.42a2.29,2.29,0,0,0,0,4.57,2.29,2.29,0,0,0,0-4.57h0Zm-0.5,3.85h-0.48v-3a5.51,5.51,0,0,1,.85-0.07,1.6,1.6,0,0,1,.94.23,0.73,0.73,0,0,1,.27.62,0.75,0.75,0,0,1-.58.73v0a0.73,0.73,0,0,1,.5.73,2.48,2.48,0,0,0,.19.75h-0.5a2.27,2.27,0,0,1-.2-0.77,0.56,0.56,0,0,0-.65-0.53H212.9v1.3Zm0-1.67h0.35a0.6,0.6,0,0,0,.73-0.52,0.59,0.59,0,0,0-.73-0.53,2.36,2.36,0,0,0-.35,0v1Z" fill="#fff"/>
  </g>
</svg>
