<svg id="headphones" xmlns="http://www.w3.org/2000/svg" viewBox="0 0 29.74 29.47">
  <title>headphones</title>
  <path id="headphones-body" d="M29.74,14.87A14.87,14.87,0,0,0,4.35,4.35,14.78,14.78,0,0,0,0,14.87v7a7.23,7.23,0,0,0,7.22,7.22,0.86,0.86,0,0,0,.86-0.86V15.56a0.86,0.86,0,0,0-.86-0.86,7.19,7.19,0,0,0-5.5,2.55V14.87a13.15,13.15,0,1,1,26.3,0A0.79,0.79,0,0,0,28,15a0.79,0.79,0,0,0,0,.17v2.37A7.19,7.19,0,0,0,22.52,15a0.86,0.86,0,0,0-.86.86V28.61a0.86,0.86,0,0,0,.86.86,7.23,7.23,0,0,0,7.22-7.22v-7a0.79,0.79,0,0,0,0-.17A0.79,0.79,0,0,0,29.74,14.87ZM6.35,16.48V27.34A5.5,5.5,0,0,1,6.35,16.48Zm17,11.2V16.82A5.5,5.5,0,0,1,23.39,27.68Z"/>
</svg>
