<svg id="play" xmlns="http://www.w3.org/2000/svg" viewBox="0 0 314.07 314.06">
  <title>play</title>
  <circle id="play-ellipse" cx="157.03" cy="157.03" r="146.29" opacity="0" fill="#fff"/>
  <path id="play-border" d="M293,78.53A157,157,0,1,0,235.53,293,157,157,0,0,0,293,78.53ZM157,303.32A146.29,146.29,0,1,1,303.32,157,146.29,146.29,0,0,1,157,303.32Z" transform="translate(0 0)" fill="#fff"/>
  <path id="play-button" d="M131.34,102.7c-7.49-4.37-13.53-.88-13.49,7.79l0.42,95.17c0,8.66,6.16,12.19,13.67,7.85l81.59-47.1c7.51-4.33,7.52-11.39,0-15.76Z" transform="translate(0 0)" fill="#fff"/>
</svg>
