<svg id="Ebene_1" data-name="Ebene 1" xmlns="http://www.w3.org/2000/svg" viewBox="0 0 477.37 477.6">
  <title>speech-bubble</title>
  <g>
    <path d="M407.47,70a238.52,238.52,0,0,0-337.6,0c-87,87-93.3,226-15.8,320.2-10.7,21.9-23.3,36.5-37.6,43.5a22.28,22.28,0,0,0,6.4,42,113.61,113.61,0,0,0,16.9,1.3h0c29.3,0,60.1-10.1,85.8-27.8A238.81,238.81,0,0,0,407.47,70Zm-19.1,318.5a211.84,211.84,0,0,1-256.9,32.9,13.44,13.44,0,0,0-15.1.9C85.77,446,55,449.5,41.47,449.8c16.1-12,29.6-30.6,40.9-56.5a13.59,13.59,0,0,0-2.3-14.4c-74-83.6-70.1-211,8.9-290a211.73,211.73,0,0,1,299.4,0C471,171.6,471,306,388.37,388.5Z"/>
    <path d="M338.67,160h-200a13.5,13.5,0,0,0,0,27h200A13.5,13.5,0,1,0,338.67,160Z"/>
    <path d="M338.67,225.3h-200a13.5,13.5,0,0,0,0,27h200A13.5,13.5,0,0,0,338.67,225.3Z"/>
    <path d="M338.67,290.6h-200a13.5,13.5,0,0,0,0,27h200A13.5,13.5,0,1,0,338.67,290.6Z"/>
  </g>
</svg>
