<?xml version="1.0" encoding="UTF-8" standalone="no"?>
<svg width="557px" height="35px" viewBox="0 0 557 35" version="1.1" xmlns="http://www.w3.org/2000/svg" xmlns:xlink="http://www.w3.org/1999/xlink">
    <!-- Generator: Sketch 3.7.2 (28276) - http://www.bohemiancoding.com/sketch -->
    <title>Group</title>
    <desc>Created with Sketch.</desc>
    <defs>
        <path d="M507,12 L507,17 L512,17 L512,15 L509,15 L509,12 L507,12 L507,12 Z M507,6 L507,1 L512,1 L512,3 L509,3 L509,6 L507,6 L507,6 Z M527,12 L527,17 L522,17 L522,15 L525,15 L525,12 L527,12 L527,12 Z M527,6 L527,1 L522,1 L522,3 L525,3 L525,6 L527,6 L527,6 Z" id="path-1"></path>
        <filter x="-50%" y="-50%" width="200%" height="200%" filterUnits="objectBoundingBox" id="filter-2">
            <feOffset dx="0" dy="1" in="SourceAlpha" result="shadowOffsetOuter1"></feOffset>
            <feColorMatrix values="0 0 0 0 0   0 0 0 0 0   0 0 0 0 0  0 0 0 1 0" type="matrix" in="shadowOffsetOuter1"></feColorMatrix>
        </filter>
    </defs>
    <g id="Page-1" stroke="none" stroke-width="1" fill="none" fill-rule="evenodd">
        <g id="Group">
            <g id="Control-Panel" transform="translate(23.000000, 17.000000)">
                <g id="fullscreen">
                    <use fill="black" fill-opacity="1" filter="url(#filter-2)" xlink:href="#path-1"></use>
                    <use fill="#E0E0E0" fill-rule="evenodd" xlink:href="#path-1"></use>
                </g>
                <path d="M469.556886,13.9469091 L468.077844,13.9469091 L468.077844,13.1048038 C467.517132,13.7368421 467.041814,14.0560766 466.523683,14.0560766 C466.069072,14.0560766 465.753413,13.8451675 465.595311,13.4641531 C465.499251,13.2324211 465.431138,12.8706986 465.431138,12.3392536 L465.431138,6.21485167 L466.91018,6.21485167 L466.91018,11.9564785 L466.91018,12.4923636 C466.944665,12.7072536 467.037455,12.7857225 467.225527,12.7857225 C467.508647,12.7857225 467.764832,12.5438086 468.077844,12.1095885 L468.077844,6.21485167 L469.556886,6.21485167 L469.556886,13.9469091 M462.862275,11.6502584 C462.94012,12.4158086 462.698647,12.7956746 462.239365,12.7956746 C461.780162,12.7956746 461.538922,12.4158086 461.616766,11.6502584 L461.616766,8.58805742 C461.538922,7.82250718 461.78024,7.46369378 462.239521,7.46369378 C462.698802,7.46369378 462.940898,7.82250718 462.863054,8.58805742 L462.862275,11.6502584 L462.862275,11.6502584 Z M464.341317,8.74116746 C464.341317,7.91490909 464.172551,7.29443062 463.874251,6.90384689 C463.480204,6.37500478 462.862275,6.15850718 462.239521,6.15850718 C461.534641,6.15850718 460.998216,6.37500478 460.60479,6.90384689 C460.301743,7.29443062 460.139204,7.92164593 460.139204,8.74790431 L460.137725,11.4971483 C460.137725,12.3188134 460.282281,12.8865455 460.585407,13.2733014 C460.978832,13.8005359 461.616766,14.0798852 462.239521,14.0798852 C462.862275,14.0798852 463.511419,13.8005359 463.905389,13.2733014 C464.203689,12.8865455 464.341317,12.3188134 464.341317,11.4971483 L464.341317,8.74116746 L464.341317,8.74116746 Z M458.502994,9.73638278 L458.502994,13.9469091 L456.946108,13.9469091 L456.946108,9.73638278 C456.946108,9.73638278 455.332784,4.57420096 455,3.61198086 L456.634731,3.61198086 L457.727275,7.6445933 L458.814371,3.61198086 L460.449102,3.61198086 L458.502994,9.73638278 L458.502994,9.73638278 Z M489.934737,12.7857225 C490.281689,12.7857225 490.483928,12.6001531 490.564341,12.2297033 C490.577419,12.1541435 490.574928,11.8235789 490.574928,11.2674833 L492.053892,11.2674833 L492.053892,11.4844402 C492.053892,11.9310622 492.016527,12.2471579 492.003838,12.3859522 C491.956275,12.6931675 491.845581,12.9711388 491.674246,13.2163445 C491.284401,13.7718278 490.706096,14.0455885 489.969766,14.0455885 C489.232503,14.0455885 488.671323,13.784689 488.263886,13.2619713 C487.964497,12.8791962 487.772455,12.3100861 487.772455,11.4971483 L487.772455,8.81772249 C487.772455,8.00011483 487.947138,7.36807656 488.246527,6.98116746 C488.65412,6.45768421 489.215299,6.18063158 489.934737,6.18063158 C490.641719,6.18063158 491.202898,6.45768421 491.597958,6.98116746 C491.892599,7.36807656 492.056305,7.96620096 492.056305,8.78380861 L492.056617,10.348823 L489.251497,10.348823 L489.251497,11.7235981 C489.246671,12.4300478 489.451012,12.7857225 489.934737,12.7857225 L489.934737,12.7857225 L489.934737,12.7857225 Z M486.838323,11.6502584 C486.838323,12.3577799 486.776749,12.8570718 486.682635,13.1813589 C486.494563,13.7501627 486.084479,14.0455885 485.523299,14.0455885 C485.022216,14.0455885 484.508754,13.7490909 484.037874,13.1761531 L484.035928,13.9469091 L482.634731,13.9469091 L482.634731,3.68853589 L484.035928,3.68853589 L484.034293,7.03307177 C484.489527,6.48218182 485.004856,6.16861244 485.523299,6.16861244 C486.084479,6.16861244 486.461713,6.48738756 486.649784,7.06040191 C486.743898,7.36807656 486.838323,7.86346411 486.838323,8.58805742 L486.838323,11.6502584 L486.838323,11.6502584 Z M481.467066,13.9469091 L479.988024,13.9469091 L479.988024,13.1048038 C479.427311,13.7368421 478.951994,14.0560766 478.433862,14.0560766 C477.979251,14.0560766 477.663593,13.8451675 477.505491,13.4641531 C477.409431,13.2324211 477.341317,12.8706986 477.341317,12.3392536 L477.341317,6.2914067 L478.820359,6.2914067 L478.820359,11.9564785 L478.820359,12.4923636 C478.854844,12.7072536 478.947635,12.7857225 479.135707,12.7857225 C479.418826,12.7857225 479.675012,12.5438086 479.988024,12.1095885 L479.988024,6.2914067 L481.467066,6.2914067 L481.467066,13.9469091 L481.467066,13.9469091 Z M475.862275,13.9469091 L474.305389,13.9469091 L474.305389,5.14308134 L472.670659,5.14308134 L472.670659,3.69014354 L477.57485,3.68853589 L477.57485,5.14308134 L475.862275,5.14308134 L475.862275,13.9469091 L475.862275,13.9469091 Z M493.769659,4.44704306 C493.769659,4.44704306 493.542509,2.8788134 492.845569,2.18821053 C491.961725,1.2818756 490.970766,1.2772823 490.516467,1.22430622 C487.263743,0.994105263 482.384461,0.994105263 482.384461,0.994105263 L482.374263,0.994105263 C482.374263,0.994105263 477.494904,0.994105263 474.24218,1.22430622 C473.787725,1.2772823 472.797156,1.2818756 471.913078,2.18821053 C471.21606,2.8788134 470.989222,4.44704306 470.989222,4.44704306 C470.989222,4.44704306 470.756778,6.28857416 470.756778,8.13025837 L470.756778,9.85680383 C470.756778,11.6982584 470.989222,13.5397895 470.989222,13.5397895 C470.989222,13.5397895 471.21606,15.1079426 471.913078,15.798622 C472.797156,16.7051866 473.958904,16.6763254 474.476102,16.7712536 C476.335725,16.9460287 482.379323,17 482.379323,17 C482.379323,17 487.263743,16.9928038 490.516467,16.762756 C490.970766,16.7096268 491.961725,16.7051866 492.845569,15.798622 C493.542509,15.1079426 493.769659,13.5397895 493.769659,13.5397895 C493.769659,13.5397895 494.00179,11.6982584 494.00179,9.85680383 L494.00179,8.13025837 C494.00179,6.28857416 493.769659,4.44704306 493.769659,4.44704306 L493.769659,4.44704306 Z M490.57485,8.36482297 C490.57485,7.65722488 490.38888,7.44463158 489.921659,7.44463158 C489.451012,7.44463158 489.251497,7.63977033 489.251497,8.35525359 L489.251497,9.20195215 L490.57485,9.20049761 L490.57485,8.36482297 L490.57485,8.36482297 Z M484.769377,7.44463158 C484.537323,7.44463158 484.271563,7.56505263 484.035928,7.79379904 L484.034293,12.436555 C484.270006,12.6682871 484.537323,12.7857225 484.769377,12.7857225 C485.175802,12.7857225 485.359281,12.4923636 485.359281,11.7268134 L485.359281,8.43494737 C485.359281,7.66939713 485.175802,7.44463158 484.769377,7.44463158 L484.769377,7.44463158 Z" id="YouTube-Logo" fill="#757575"></path>
                <text id="1.20-/-3:00" font-family="Helvetica" font-size="12" font-weight="normal" fill="#E0E0E0">
                    <tspan x="82" y="13">1.20 / 3:00</tspan>
                </text>
                <path d="M56.1824568,16.595105 C58.482725,15.0739698 60,12.4641742 60,9.5 C60,6.53582581 58.482725,3.92603018 56.1824568,2.40489495 C55.9273116,2.63224008 55.6845091,2.87314146 55.4551798,3.12646852 C57.5832996,4.44990356 59,6.80950773 59,9.5 C59,12.1904923 57.5832996,14.5500964 55.4551798,15.8735315 C55.6845091,16.1268585 55.9273116,16.3677599 56.1824568,16.595105 L56.1824568,16.595105 L56.1824568,16.595105 Z M53.816412,13.3587991 C55.1247562,12.5717191 56,11.1380716 56,9.5 C56,7.86192838 55.1247562,6.42828091 53.816412,5.64120093 C53.6786798,5.95068035 53.5570066,6.26888453 53.4524504,6.59475515 C54.3859458,7.22334144 55,8.2899607 55,9.5 C55,10.7100393 54.3859458,11.7766586 53.4524504,12.4052449 C53.5570066,12.7311155 53.6786798,13.0493197 53.816412,13.3587991 L53.816412,13.3587991 L53.816412,13.3587991 Z M42,6 L42,13 L46,13 L46,6 L42,6 L42,6 Z M46,6.00976562 L46,13.105957 L51,16 L51,3 L46,6.00976562 L46,6.00976562 Z" id="Voice" fill="#E0E0E0"></path>
                <polygon id="Play" fill="#E0E0E0" points="0 1 0 17 14 9.08642578"></polygon>
            </g>
            <g id="Progress-Bar">
                <rect fill="#CE1312" x="0" y="4" width="556" height="9"></rect>
                <rect fill="#E0E0E0" x="179" y="4" width="378" height="9"></rect>
                <g id="Progress-Controller" transform="translate(170.000000, 0.000000)">
                    <circle id="Oval-2" fill="#EAEAEA" cx="8.5" cy="8.5" r="8.5"></circle>
                    <circle id="Oval-3" fill="#AEAEAE" cx="8.5" cy="8.5" r="3.5"></circle>
                </g>
            </g>
        </g>
    </g>
</svg>