<?xml version="1.0" encoding="UTF-8"?><!DOCTYPE svg PUBLIC "-//W3C//DTD SVG 1.1//EN" "http://www.w3.org/Graphics/SVG/1.1/DTD/svg11.dtd"><svg xmlns="http://www.w3.org/2000/svg" xmlns:xlink="http://www.w3.org/1999/xlink"><defs><radialGradient id="Unbenannter_Verlauf_195" data-name="Unbenannter Verlauf 195" cx="434.42" cy="33.45" r="41.46" gradientUnits="userSpaceOnUse"><stop offset=".19" stop-color="#fff"/><stop offset=".32" stop-color="#fcfcfc"/><stop offset=".42" stop-color="#f2f2f2"/><stop offset=".52" stop-color="#e0e0e0"/><stop offset=".61" stop-color="#c8c8c8"/><stop offset=".7" stop-color="#a9a9a9"/><stop offset=".79" stop-color="#838383"/><stop offset=".87" stop-color="#555"/><stop offset=".95" stop-color="#222"/><stop offset="1"/></radialGradient><radialGradient id="Unbenannter_Verlauf_530" data-name="Unbenannter Verlauf 530" cx="432.82" cy="32.48" r="23.35" gradientUnits="userSpaceOnUse"><stop offset="0" stop-color="#fff"/><stop offset=".06" stop-color="#e7e7e7"/><stop offset=".18" stop-color="#bfbfbf"/><stop offset=".31" stop-color="#9f9f9f"/><stop offset=".43" stop-color="#858585"/><stop offset=".56" stop-color="#737373"/><stop offset=".7" stop-color="#686868"/><stop offset=".86" stop-color="#656565"/></radialGradient><radialGradient id="Unbenannter_Verlauf_512" data-name="Unbenannter Verlauf 512" cx="424.44" cy="30.31" r="26.29" gradientTransform="rotate(52.41 436.488 39.542)" gradientUnits="userSpaceOnUse"><stop offset="0" stop-color="#fff"/><stop offset=".01" stop-color="#fbfbfb"/><stop offset=".09" stop-color="#d3d3d3"/><stop offset=".18" stop-color="#b1b1b1"/><stop offset=".27" stop-color="#959595"/><stop offset=".37" stop-color="gray"/><stop offset=".48" stop-color="#717171"/><stop offset=".61" stop-color="#686868"/><stop offset=".8" stop-color="#656565"/></radialGradient><radialGradient id="Unbenannter_Verlauf_512-2" cx="419.75" cy="28.08" r="18.64" xlink:href="#Unbenannter_Verlauf_512"/><linearGradient id="Unbenannter_Verlauf_926" data-name="Unbenannter Verlauf 926" x1="443.19" y1="3.65" x2="434.25" y2="17.39" gradientUnits="userSpaceOnUse"><stop offset="0" stop-color="#fff"/><stop offset=".13" stop-color="#f9f9f9"/><stop offset=".29" stop-color="#eaeaea"/><stop offset=".47" stop-color="#cfcfcf"/><stop offset=".67" stop-color="#ababab"/><stop offset=".87" stop-color="#7c7c7c"/><stop offset=".96" stop-color="#656565"/></linearGradient><linearGradient id="Unbenannter_Verlauf_1023" data-name="Unbenannter Verlauf 1023" x1="449.59" y1="5.98" x2="442.04" y2="1.42" gradientUnits="userSpaceOnUse"><stop offset="0" stop-color="#fff"/><stop offset=".06" stop-color="#fbeaec"/><stop offset=".23" stop-color="#f3b7be"/><stop offset=".39" stop-color="#ec8c98"/><stop offset=".55" stop-color="#e66b7a"/><stop offset=".7" stop-color="#e25365"/><stop offset=".84" stop-color="#e04558"/><stop offset=".96" stop-color="#df4054"/></linearGradient><linearGradient id="Unbenannter_Verlauf_1100" data-name="Unbenannter Verlauf 1100" x1="451.8" y1="8.21" x2="445.71" y2="1.83" gradientUnits="userSpaceOnUse"><stop offset="0" stop-color="#fff"/><stop offset="0" stop-color="#fffdfd"/><stop offset=".08" stop-color="#f7d1d6"/><stop offset=".17" stop-color="#f1abb3"/><stop offset=".26" stop-color="#eb8a96"/><stop offset=".36" stop-color="#e76f7e"/><stop offset=".47" stop-color="#e35a6b"/><stop offset=".59" stop-color="#e14b5e"/><stop offset=".73" stop-color="#df4356"/><stop offset=".96" stop-color="#df4054"/></linearGradient><linearGradient id="Unbenannter_Verlauf_1253" data-name="Unbenannter Verlauf 1253" x1="282" y1="178.31" x2="302.38" y2="178.31" gradientUnits="userSpaceOnUse"><stop offset="0" stop-color="#f7f8f6"/><stop offset=".15" stop-color="#f4f5f3"/><stop offset=".27" stop-color="#e9eae8"/><stop offset=".39" stop-color="#d7d8d7"/><stop offset=".5" stop-color="#bfbfbe"/><stop offset=".61" stop-color="#9f9f9e"/><stop offset=".72" stop-color="#777877"/><stop offset=".83" stop-color="#494948"/><stop offset=".93" stop-color="#141414"/><stop offset=".96"/></linearGradient><radialGradient id="Unbenannter_Verlauf_1262" data-name="Unbenannter Verlauf 1262" cx="280.75" cy="174.76" r="36.92" gradientUnits="userSpaceOnUse"><stop offset="0" stop-color="#f7f8f6"/><stop offset=".33" stop-color="#f5f6f4"/><stop offset=".46" stop-color="#eeefed"/><stop offset=".56" stop-color="#e2e3e1"/><stop offset=".64" stop-color="#d0d1cf"/><stop offset=".7" stop-color="#babab9"/><stop offset=".77" stop-color="#9e9e9d"/><stop offset=".82" stop-color="#7c7d7c"/><stop offset=".88" stop-color="#555655"/><stop offset=".92" stop-color="#2b2b2b"/><stop offset=".96"/></radialGradient><linearGradient id="Unbenannter_Verlauf_46" data-name="Unbenannter Verlauf 46" x1="238.55" y1="211.02" x2="304.28" y2="116.07" gradientUnits="userSpaceOnUse"><stop offset="0" stop-color="#e13f57"/><stop offset=".19" stop-color="#e8697c"/><stop offset=".58" stop-color="#f4b9c2"/><stop offset=".86" stop-color="#fcecee"/><stop offset="1" stop-color="#fff"/></linearGradient><linearGradient id="Unbenannter_Verlauf_264" data-name="Unbenannter Verlauf 264" x1="165.08" y1="194.35" x2="191.48" y2="154.81" gradientUnits="userSpaceOnUse"><stop offset="0" stop-color="#ea828e"/><stop offset=".14" stop-color="#eb8994"/><stop offset=".35" stop-color="#ee9ca5"/><stop offset=".59" stop-color="#f4bbc1"/><stop offset=".86" stop-color="#fbe6e8"/><stop offset="1" stop-color="#fff"/></linearGradient><linearGradient id="Unbenannter_Verlauf_49" data-name="Unbenannter Verlauf 49" x1="344.84" y1="182.68" x2="408" y2="106.3" xlink:href="#Unbenannter_Verlauf_46"/><linearGradient id="Unbenannter_Verlauf_242" data-name="Unbenannter Verlauf 242" x1="278.6" y1="133.12" x2="277.11" y2="253.5" gradientUnits="userSpaceOnUse"><stop offset="0" stop-color="#815970"/><stop offset=".33" stop-color="#78566c"/><stop offset=".89" stop-color="#5e4d61"/><stop offset="1" stop-color="#584b5e"/></linearGradient><linearGradient id="Unbenannter_Verlauf_536" data-name="Unbenannter Verlauf 536" x1="95.43" y1="41.91" x2="233.61" y2="224.92" gradientUnits="userSpaceOnUse"><stop offset="0" stop-color="#fff"/><stop offset=".09" stop-color="#e1e0e2"/><stop offset=".27" stop-color="#aca9ad"/><stop offset=".44" stop-color="#807b82"/><stop offset=".6" stop-color="#5e5760"/><stop offset=".75" stop-color="#453e48"/><stop offset=".89" stop-color="#362e39"/><stop offset="1" stop-color="#312934"/></linearGradient><linearGradient id="Unbenannter_Verlauf_369" data-name="Unbenannter Verlauf 369" x1="202.9" y1="26.96" x2="391.05" y2="206.4" gradientUnits="userSpaceOnUse"><stop offset="0" stop-color="#fff"/><stop offset=".04" stop-color="#e6e5e6"/><stop offset=".12" stop-color="#bcb9bd"/><stop offset=".21" stop-color="#969298"/><stop offset=".3" stop-color="#777279"/><stop offset=".4" stop-color="#5d5760"/><stop offset=".5" stop-color="#4a434c"/><stop offset=".62" stop-color="#3c343e"/><stop offset=".77" stop-color="#332c36"/><stop offset="1" stop-color="#312934"/></linearGradient><radialGradient id="Unbenannter_Verlauf_215" data-name="Unbenannter Verlauf 215" cx="299.25" cy="38.65" r="238.76" gradientUnits="userSpaceOnUse"><stop offset=".83" stop-color="#804b60"/><stop offset=".88" stop-color="#6f4c61"/><stop offset=".96" stop-color="#5c4d63"/></radialGradient><linearGradient id="Unbenannter_Verlauf_14" data-name="Unbenannter Verlauf 14" x1="274.81" y1="106.9" x2="289.57" y2="111.33" gradientUnits="userSpaceOnUse"><stop offset="0" stop-color="#5d3e4d"/><stop offset="1"/></linearGradient><linearGradient id="Unbenannter_Verlauf_297" data-name="Unbenannter Verlauf 297" x1="412.07" y1="46.63" x2="692.71" y2="143.22" gradientUnits="userSpaceOnUse"><stop offset="0" stop-color="#fff"/><stop offset=".03" stop-color="#fbe9eb"/><stop offset=".09" stop-color="#f4c3c9"/><stop offset=".15" stop-color="#eea1aa"/><stop offset=".22" stop-color="#e88490"/><stop offset=".3" stop-color="#e46d7c"/><stop offset=".39" stop-color="#e15c6c"/><stop offset=".5" stop-color="#df4f60"/><stop offset=".65" stop-color="#dd485a"/><stop offset="1" stop-color="#dd4658"/></linearGradient><linearGradient id="Unbenannter_Verlauf_368" data-name="Unbenannter Verlauf 368" x1="422.97" y1="24.69" x2="624.65" y2="61.97" gradientUnits="userSpaceOnUse"><stop offset="0" stop-color="#fff"/><stop offset=".01" stop-color="#fdfafa"/><stop offset=".08" stop-color="#edd2d5"/><stop offset=".15" stop-color="#deafb3"/><stop offset=".23" stop-color="#d29197"/><stop offset=".32" stop-color="#c97981"/><stop offset=".42" stop-color="#c1676f"/><stop offset=".53" stop-color="#bc5a63"/><stop offset=".68" stop-color="#b9525c"/><stop offset="1" stop-color="#b8505a"/></linearGradient><linearGradient id="Unbenannter_Verlauf_398" data-name="Unbenannter Verlauf 398" x1="421.32" y1="74.33" x2="662.63" y2="170.08" gradientUnits="userSpaceOnUse"><stop offset="0" stop-color="#fff"/><stop offset=".03" stop-color="#f8edee"/><stop offset=".08" stop-color="#e9c8cb"/><stop offset=".14" stop-color="#dca8ad"/><stop offset=".2" stop-color="#d08c93"/><stop offset=".28" stop-color="#c7767e"/><stop offset=".36" stop-color="#c0656e"/><stop offset=".47" stop-color="#bc5962"/><stop offset=".61" stop-color="#b9525c"/><stop offset="1" stop-color="#b8505a"/></linearGradient><linearGradient id="Unbenannter_Verlauf_194" data-name="Unbenannter Verlauf 194" x1="244.8" y1="215.05" x2="821.85" y2="65.31" gradientUnits="userSpaceOnUse"><stop offset="0" stop-color="#fff"/><stop offset=".01" stop-color="#f7f6f7"/><stop offset=".07" stop-color="#d5d1d6"/><stop offset=".13" stop-color="#b7b0b8"/><stop offset=".2" stop-color="#9d95a0"/><stop offset=".27" stop-color="#887e8b"/><stop offset=".36" stop-color="#786d7c"/><stop offset=".47" stop-color="#6d6171"/><stop offset=".62" stop-color="#675a6b"/><stop offset="1" stop-color="#655869"/></linearGradient><linearGradient id="Unbenannter_Verlauf_347" data-name="Unbenannter Verlauf 347" x1="264.15" y1="224.44" x2="907.91" y2="12.42" gradientUnits="userSpaceOnUse"><stop offset="0" stop-color="#fff"/><stop offset=".02" stop-color="#f4f3f5"/><stop offset=".07" stop-color="#d3cfd4"/><stop offset=".13" stop-color="#b5afb7"/><stop offset=".19" stop-color="#9c939e"/><stop offset=".26" stop-color="#877d8b"/><stop offset=".35" stop-color="#786c7b"/><stop offset=".45" stop-color="#6d6171"/><stop offset=".6" stop-color="#675a6b"/><stop offset="1" stop-color="#655869"/></linearGradient><linearGradient id="Unbenannter_Verlauf_281" data-name="Unbenannter Verlauf 281" x1="340.44" y1="182.54" x2="866.84" y2="32.24" xlink:href="#Unbenannter_Verlauf_347"/><linearGradient id="Unbenannter_Verlauf_1137" data-name="Unbenannter Verlauf 1137" x1="314.62" y1="256.19" x2="334.36" y2="229.21" gradientUnits="userSpaceOnUse"><stop offset="0" stop-color="#625b6a"/><stop offset=".36" stop-color="#645d6c"/><stop offset=".51" stop-color="#6b6472"/><stop offset=".62" stop-color="#77717e"/><stop offset=".72" stop-color="#88828e"/><stop offset=".8" stop-color="#9e99a3"/><stop offset=".87" stop-color="#b9b6bc"/><stop offset=".94" stop-color="#d8d6da"/><stop offset="1" stop-color="#fcfcfd"/><stop offset="1" stop-color="#fff"/></linearGradient><linearGradient id="Unbenannter_Verlauf_1127" data-name="Unbenannter Verlauf 1127" x1="477.31" y1="296.73" x2="492.34" y2="266.42" gradientUnits="userSpaceOnUse"><stop offset="0" stop-color="#625b6a"/><stop offset=".23" stop-color="#655e6d"/><stop offset=".39" stop-color="#6d6775"/><stop offset=".52" stop-color="#7c7683"/><stop offset=".64" stop-color="#918c96"/><stop offset=".76" stop-color="#aca8b0"/><stop offset=".87" stop-color="#cdcbcf"/><stop offset=".97" stop-color="#f3f3f4"/><stop offset="1" stop-color="#fff"/></linearGradient><linearGradient id="Unbenannter_Verlauf_991" data-name="Unbenannter Verlauf 991" x1="-1.72" y1="211.13" x2="30.94" y2="211.38" gradientUnits="userSpaceOnUse"><stop offset="0" stop-color="#625b6a"/><stop offset=".19" stop-color="#655e6d"/><stop offset=".34" stop-color="#6f6976"/><stop offset=".49" stop-color="#807a86"/><stop offset=".63" stop-color="#97929c"/><stop offset=".76" stop-color="#b5b2b9"/><stop offset=".89" stop-color="#d9d8db"/><stop offset="1" stop-color="#fff"/></linearGradient><linearGradient id="Unbenannter_Verlauf_975" data-name="Unbenannter Verlauf 975" x1="299.61" y1="76.84" x2="326.74" y2="91.59" gradientUnits="userSpaceOnUse"><stop offset="0" stop-color="#625b6a"/><stop offset=".19" stop-color="#655e6d"/><stop offset=".35" stop-color="#6f6876"/><stop offset=".49" stop-color="#7f7a86"/><stop offset=".63" stop-color="#96929c"/><stop offset=".76" stop-color="#b4b1b8"/><stop offset=".89" stop-color="#d8d7da"/><stop offset="1" stop-color="#fff"/></linearGradient><linearGradient id="Unbenannter_Verlauf_1019" data-name="Unbenannter Verlauf 1019" x1="171.49" y1="272.06" x2="198.73" y2="252.93" gradientUnits="userSpaceOnUse"><stop offset="0" stop-color="#625b6a"/><stop offset=".17" stop-color="#665f6d"/><stop offset=".32" stop-color="#706a78"/><stop offset=".48" stop-color="#827d89"/><stop offset=".62" stop-color="#9c97a1"/><stop offset=".77" stop-color="#bdbac0"/><stop offset=".92" stop-color="#e4e3e6"/><stop offset="1" stop-color="#fff"/></linearGradient><linearGradient id="Unbenannter_Verlauf_1149" data-name="Unbenannter Verlauf 1149" x1="126.91" y1="122.67" x2="143.44" y2="129.82" gradientUnits="userSpaceOnUse"><stop offset="0" stop-color="#625b6a"/><stop offset=".15" stop-color="#665f6e"/><stop offset=".31" stop-color="#726b79"/><stop offset=".47" stop-color="#85808c"/><stop offset=".63" stop-color="#a19da6"/><stop offset=".79" stop-color="#c4c2c7"/><stop offset=".95" stop-color="#efeef0"/><stop offset="1" stop-color="#fff"/></linearGradient><linearGradient id="Unbenannter_Verlauf_990" data-name="Unbenannter Verlauf 990" x1="75.34" y1="84.45" x2="102.75" y2="94.35" gradientUnits="userSpaceOnUse"><stop offset="0" stop-color="#625b6a"/><stop offset=".16" stop-color="#665f6d"/><stop offset=".32" stop-color="#716a78"/><stop offset=".47" stop-color="#837d89"/><stop offset=".62" stop-color="#9d98a2"/><stop offset=".77" stop-color="#bebbc1"/><stop offset=".92" stop-color="#e6e5e7"/><stop offset="1" stop-color="#fff"/></linearGradient></defs><symbol id="astronaut" viewBox="0 0 196 196"><circle id="astronaut-circle" class="st0" cx="98" cy="98" r="98"/><path id="helmet" class="st1" d="M50.9 109.5v20.4c0 3.5 21 6.4 47 6.4s47-2.9 47-6.4v-20.3c3.7-.8 6.4-4 6.4-7.9V80.2c0-4.3-3.4-7.9-7.7-8.1-4.8-20.8-23.5-36.3-45.8-36.3-22.3 0-40.9 15.5-45.8 36.3-4.2.3-7.5 3.8-7.5 8.1v21.4c.1 3.9 2.8 7.1 6.4 7.9zM61.2 85c0-9.3 7.6-16.9 16.9-16.9h39.8c9.3 0 16.9 7.6 16.9 16.9v10.3c-3.3 3.7-6.6 7.3-9.9 11h-15.7a5.6 5.6 0 0 0-4.7-2.5c-3.1 0-5.6 2.5-5.6 5.6s2.5 5.6 5.6 5.6c1.7 0 3.2-.7 4.2-1.9h17.4c1.8 0 2.2-.6 3.1-1.5l5.6-6.2c-.2 9.2-7.7 16.6-16.9 16.6H78.1c-9.3 0-16.9-7.6-16.9-16.9V85z"/><path id="scarf" class="st1" d="M148.2 136.1c-6.4 2.9-26.5 5.1-50.2 5.1-23.7 0-43.8-2.1-50.2-5.1-1-.5-2.1.3-2.1 1.4V153c0 3.9 23.4 7.1 52.3 7.1s52.3-3.2 52.3-7.1v-15.5c0-1.1-1.1-1.8-2.1-1.4z"/></symbol><symbol id="footer-planet" viewBox="0 0 564 1124.67"><title>footer-planet</title><path id="colony-planet" d="M417.4 16.1a20.83 20.83 0 0 1 10.2-6s3.4-4.6 6.6-.9c0 0 4.1-.1 5 .4s15.1 2.2 18.8 21.1c0 0 3.4.8 0 9.2 0 0-1 4.5-1.6 4.9 0 0 .9 8.6-6.6 8.1 0 0-10.5 11.6-27.5 2.5 0 0-3 .6-6-2.4a8.59 8.59 0 0 0-2.9-2.5s-1.1-3.2-.8-4c0 0-6.5-11.1-1.2-23.1 0 0-1.6-7 6-7.3z" fill="url(#Unbenannter_Verlauf_195)"/><ellipse id="planet-crater-1" cx="434.4" cy="18.9" rx="4.8" ry="2.4" fill="url(#Unbenannter_Verlauf_530)"/><ellipse id="planet-crater-2" cx="436.52" cy="39.56" rx="5.2" ry="3.8" transform="rotate(-52.41 436.483 39.57)" fill="url(#Unbenannter_Verlauf_512)"/><circle id="planet-crater-3" cx="422.8" cy="37.7" r="2.9" fill="url(#Unbenannter_Verlauf_512-2)"/><path id="planet-flag-stange" fill="url(#Unbenannter_Verlauf_926)" d="M439.1 9.7l2.05-4.87.79.46-1.73 4.88-1.11-.47z"/><path id="planet-flag-1" d="M441.8 4.3l2.8.4s2-3.2 1.1-4.1l-3.9-.3v4z" fill="url(#Unbenannter_Verlauf_1023)"/><path id="planet-flag-2" d="M445.4 5l3.09 1.4s2.07-2.29 1.58-3.54l-3.14-.56z" fill="url(#Unbenannter_Verlauf_1100)"/><path id="tree-star-1" d="M545.2 21.9c-.7 4-1.3 4.6-5.4 5.4 4 .7 4.6 1.3 5.4 5.4.7-4 1.3-4.6 5.4-5.4-4.1-.8-4.7-1.4-5.4-5.4z" fill="#48434a"/><path id="tree-star-2" d="M340.7 25.3c-.4 2-.7 2.3-2.7 2.7 2 .4 2.3.7 2.7 2.7.4-2 .7-2.3 2.7-2.7-2-.4-2.3-.7-2.7-2.7z" fill="#48434a"/><path id="tree-star-3" d="M231.1 48.3c-.6 3.1-1.1 3.6-4.3 4.1 3.2.6 3.7 1 4.3 4.1.6-3.1 1.1-3.6 4.3-4.1-3.2-.5-3.7-1-4.3-4.1z" fill="#544f5b"/><path id="tree-star-4" d="M113.6 35.4c-.7 3.9-1.4 4.5-5.4 5.3 4.1.7 4.7 1.3 5.4 5.3.7-3.9 1.4-4.5 5.4-5.3-4.1-.7-4.7-1.3-5.4-5.3z" fill="#544f5b"/><path id="tree-star-5" d="M124.9 22c-.4 2-.7 2.3-2.7 2.6 2 .4 2.3.7 2.7 2.6.4-2 .7-2.3 2.7-2.6-2.1-.4-2.4-.6-2.7-2.6z" fill="#544f5b"/><path id="tree-star-6" d="M57.3 18.6c-.5 2.5-.9 2.9-3.4 3.3 2.6.5 3 .8 3.4 3.3.5-2.5.9-2.9 3.4-3.3-2.5-.4-2.9-.8-3.4-3.3z" fill="#544f5b"/><path id="tree-star-7" d="M503.7 0c-.4 2.4-.8 2.7-3.2 3.2 2.4.4 2.7.8 3.2 3.2.4-2.4.8-2.7 3.2-3.2-2.4-.5-2.8-.8-3.2-3.2z" fill="#48434a"/><path id="tree-cloud-1" d="M177.2 146.2H202s2.6-8.4-7.2-7.7c0 0-7.2-7.5-13 1.7 0 .1-5.7.4-4.6 6z" fill="#c9c7c8"/><path id="tree-cloud-2" d="M153.2 142.4h32s3.4-10.9-9.2-9.9c0 0-9.2-9.6-16.8 2.2 0 .1-7.3.5-6 7.7z" fill="#f7f8f6"/><path id="tree-cloud-3" d="M368.8 142.4h32s3.4-10.9-9.2-9.9c0 0-9.2-9.6-16.8 2.2 0 .1-7.4.5-6 7.7z" fill="#f7f8f6"/><path id="tree-cloud-4" d="M328.4 147.3H347s2-6.3-5.4-5.8c0 0-5.4-5.6-9.8 1.3.1 0-4.2.2-3.4 4.5z" fill="#c9c7c8"/><path id="tree-base" d="M0 210.4s256.2-57.9 564 0v914.27H0V210.4z" fill="#df4054"/><path id="tree-1" fill="#df4054" d="M124.38 183.95l3.16.49-5.19-6.83 1.41-3.05-8-7.75-6.43 9.17 2.07 2.71-3.76 7.71 3-1.11-2.3 6.26 7.27-.71.47 4.77 2.49-.24 2.48-.25-.57-4.76 7.37-.73-3.47-5.68z"/><path id="tree-2" fill="#df4054" d="M139.5 187.19l1.93.38-3.21-5.47.93-2.44-5.08-6.29-4 6.96 1.27 2.28-2.38 5.87 1.86-.66-1.45 4.85 4.59-.34.27 3.75 1.5-.11 1.59-.11-.27-3.76 4.59-.33-2.14-4.58z"/><path id="tree-3" fill="#df4054" d="M150.67 187.51l1.42.32-2.21-3.68.71-1.54-3.33-4.12-2.86 4.46.88 1.46-1.78 3.9 1.38-.48-1.14 3.07 3.2-.18.04 2.5 1.1-.06 1.1-.06-.24-2.49 3.19-.18-1.46-2.92z"/><path id="tree-4" fill="#df4054" d="M245.34 180.31l1.71.36-2.49-3.74.87-1.52-4.01-4.21-3.79 4.39 1.03 1.48-2.4 3.86 1.69-.44-1.53 3.04 4-.1.06 2.5 1.3-.03 1.4-.04-.16-2.49 4-.1-1.68-2.96z"/><path id="tree-5" fill="#df4054" d="M333.17 177.44l2.48.69-3.62-6.79 1.45-2.71-5.9-7.89-5.9 7.89 1.34 2.71-3.62 6.79 2.59-.69-2.49 5.59h6.01v4.5H329.54v-4.5h6.01l-2.38-5.59z"/><path id="tree-6" fill="#df4054" d="M389.13 178.93l3.05.91-3.98-7.79 1.9-2.87-6.69-9.18-7.78 8.19 1.5 3.1-5.01 7.18 3.14-.49-3.31 5.89 7.39.51-.45 4.98 2.5.17 2.59.18.25-5 7.38.51-2.48-6.29z"/><path id="tree-7" fill="#df4054" d="M417.46 188.4l1.57.52-2.02-3.76 1-1.33-3.28-4.36-3.8 3.82.79 1.46-2.57 3.42 1.63-.28-1.72 2.78 3.59.27-.18 2.39 1.2.1 1.29.1.19-2.4 3.59.28-1.28-3.01z"/><path id="tree-8" fill="#df4054" d="M474.7 188.06l3.18 1.2-3.83-8.23 2.26-2.84-6.57-9.77-8.72 7.9 1.41 3.29-5.7 7.07 3.47-.39-3.94 5.87 7.85.96-.71 4.95 2.68.33 2.58.31.61-4.96 7.74.94-2.31-6.63z"/><path id="tree-9" fill="#df4054" d="M454.2 189.02l1.56.54-1.88-4.69 1.06-1.71-3.31-5.52-4.26 4.83.74 1.87-2.71 4.27 1.64-.25-1.83 3.45 3.79.35-.28 2.98 1.3.12 1.29.12.27-2.99 3.89.36-1.27-3.73z"/><path id="tree-10" fill="#df4054" d="M487.76 194.17l1.35.48-1.59-3.43.86-1.2-2.7-4.17-3.65 3.37.53 1.38-2.38 2.93 1.43-.13-1.62 2.42 3.28.41-.27 2.08 1.1.14 1.09.14.26-2.09 3.27.41-.96-2.74z"/><path id="tree-11" fill="#df4054" d="M322.38 180.47l1.45.4-2.02-4.2.79-1.7-3.37-5-3.36 5 .89 1.7-2.13 4.2 1.46-.4-1.34 3.5h3.36v2.8h2.25v-2.8h3.36l-1.34-3.5z"/><path id="tree-12" fill="#df4054" d="M312.3 182.7l1 .3-1.4-3.2.5-1.2-2.3-3.7-2.3 3.7.5 1.2-1.4 3.2 1-.3-1 2.6h2.4v2.1h1.6v-2.1h2.4l-1-2.6z"/><path id="tree-13" fill="#df4054" d="M104.16 188.7l2 .32-3.37-5.08.86-2.23-5.24-5.84-4 6.75 1.36 2.01-2.41 5.65 1.99-.72-1.44 4.52 4.71-.46.26 3.58 1.6-.15 1.6-.16-.35-3.57 4.72-.46-2.29-4.16z"/><path id="tree-14" fill="#df4054" d="M91.2 191.87l1.34.24-2.33-3.45.52-1.57-3.4-3.93-2.36 4.62.87 1.4-1.35 3.89 1.25-.55-.84 3.12 2.88-.34.3 2.48.99-.12.99-.12-.29-2.48 2.98-.36-1.55-2.83z"/><path id="radar-stand" d="M282 184.67h5v-11.6s-2.5-2.5-5 0v11.6z" fill="url(#Unbenannter_Verlauf_1253)"/><path id="radar-circle" d="M283.3 156.07s-5.3 18.4 15.5 16.5c0-.1-3.2-9.9-15.5-16.5z" fill="url(#Unbenannter_Verlauf_1262)"/><path id="radar-shadow" d="M283.3 156.07s7.1 7.2 15.41 16.48h.05c.04-.08-4.01-11.34-15.46-16.48z" fill="#e5e5e5"/><path id="radar-antenna" d="M290.95 164l7.1-6.8a.49.49 0 0 1 .5.5c0 .3-7 6.6-7 6.6z" fill="#c9c7c8"/><path d="M291.45 163.29a.69.69 0 0 0-.68.58l.75.81a.69.69 0 0 0 .62-.68.7.7 0 0 0-.69-.71z" fill="#a8a8a8"/></symbol><symbol id="hero" viewBox="0 0 564 331.1"><title>hero</title><g id="mountain-top"><path id="mountain-top-middle" fill="url(#Unbenannter_Verlauf_46)" d="M237.1 188.5l56.1-46.6-29.7 57.7-26.4-11.1z"/><path id="mountain-top-left" d="M158.7 184l34-14.4-10.2 12s-1.9 10.2-2.4 10.1-10.4-.2-15 1c-.1.1-3.5-6.5-6.4-8.7z" fill="url(#Unbenannter_Verlauf_264)"/><path id="mountain-top-right" d="M342.4 168.2l39-28.1s-1.6 11.4-2.4 13.5c0 0-7.4 14.2-7.8 14.6 0 0-8.8 10.8-9.4 10.9z" fill="url(#Unbenannter_Verlauf_49)"/></g><g id="blast"><path id="blast-left" d="M229.5 297.1s41.2-72.2 52.5-162.4c0 0-3.6 92-48.9 163.1z"/><path id="blast-right" d="M321.5 291.9S287.6 183.5 282 139.5c0 0 8.8 111.4 37.9 158.3a17.35 17.35 0 0 1 1.6-5.9z"/><path id="blast-inner" d="M249.7 257.6s21.3-45.6 28.4-96.9l3.5-23.5s12.6 101.6 22.9 113.4l-12.9 18s-8-54.8-8.8-82.8c0 0-2.4 64.1-.9 85.9l-17.4-1.4s2.4-31.2 5.6-43.6c0 0-10.5 36.2-11 40.2z" fill="url(#Unbenannter_Verlauf_242)"/></g><g id="mountains"><path id="mountains-left" d="M192.6 169.6l70.9 30 11.5-22.4s-7.8 47.4-25.4 77.2l-78.4-9.6-6.3-15.7 15.2-37.5 2.4-10.1z" fill="url(#Unbenannter_Verlauf_536)"/><path id="mountains-right" fill="url(#Unbenannter_Verlauf_369)" d="M293.5 141.3l68.4 37.8 9.3-10.9 7.8-14.6 2.4-13.5 42.4 18.7 37.2 1.8 13.3 7.3 9.9 6.7-87.4 82-67.6-12.4-14.2 10.3-8.3-8.6-21.6-88.2 8.4-16.4z"/></g><g id="smoke"><path id="smoke-outer" d="M0 30.2s22.5-3.4 32.5 27.1c0 0 8.7 30.8 2.7 36.7 0 0 18.8 2 21.3 43.8 0 0 18.5 15.3 22 25.8 0 0 21.5-21.5 62.5 49.5 0 0 23.4 29.4 35.7 43.5 0 0 115.8 32 144.8 11.5 0 0 30.8-28.5 59.9-17 0 0 21.8 11.5 33.7-4l132.7-119.9s4.7-15.6 16.2-18.1v222H0V30.2z"/><path id="smoke-inner" d="M32.5 57.2s34.5 13 33 47c0 0-13 3-14 5.5 0 0 27.5-9 34 19.5 0 0 27.5-2 42 33.5 0 0-14 4.5-14.5 6.5s27.5-15 52 23.5c0 0 42.5-12 56.5 39.5 0 0-28.5-3-49.5 9.5 0 0 50-22 79.5 15s52.5-11.5 52.5-11.5 8.5 1.5 12 4.5c0 0 18-22.5 41-21s35.5 15 39.5 24.5a22 22 0 0 0 0-11s17-16.5 24-15c0 0-1.7-55.4 55.4-57.7 0 0 1.2.2-3-2.5 0 0 4.6-5.5 13.1-3.2 0 0 13-38.2 47-33.2 0 0 3.4-12.1 17.2-9.1 0 0-8.7 15.1-.2 34.1l14 2s-40.5-3.5-42.5 40.5c0 0-23 9-29.5 19 0 0 14 3.5 19 9.5 0 0-39.5-22.5-55.5 18 0 0-41.8-6.8-55 21 0 0-33.3-28.3-68.5 4.9 0 0-10.5 8.6-12.5 33.6 0 0-12.9-5.6-23.5-4 0 0-24.2.6-35.5 14 0 0-16.5-21.5-49-17.5 0 0-22-51.5-79.5-28 0 0 20.5-15 27-15.5 0 0-11.8-21.1-32-17.5 0 0 3.4-32.2-14-57 0 0-10.1-14.6-34.5-15 0 0-22.5.5-37 9 0 0 20-13.5 23-15 0 0-3.2-14-12.5-18 0 0-1.8-23.9-10.5-36.2 0 0-5-8.8-19-17.2 0 0 12.5-26 10-29z" fill="url(#Unbenannter_Verlauf_215)"/></g><g id="stars"><path id="star8" d="M463.6 15s2 3.8 4.6 4.2a10 10 0 0 0-4.6 4.7 8.54 8.54 0 0 0-4.7-4.6c.1 0 3.9-1.4 4.7-4.3z"/><path id="star7" d="M483.6 10.5s1.1 2.4 2.6 2.6a6.06 6.06 0 0 0-2.6 2.9 5.71 5.71 0 0 0-2.6-2.9 4.58 4.58 0 0 0 2.6-2.6z"/><path id="star6" d="M411.4 5s1.5 2.6 3.4 2.8a7.28 7.28 0 0 0-3.4 3.2 6.16 6.16 0 0 0-3.4-3.1s2.7-1 3.4-2.9z"/><path id="star5" d="M358 26.6s.9 1.5 2 1.6a4 4 0 0 0-2 1.8 3.79 3.79 0 0 0-2-1.8 3.42 3.42 0 0 0 2-1.6z"/><path id="star4" d="M211.4 5s1.5 3.5 3.4 3.8a8.1 8.1 0 0 0-3.4 4.2s-1-3.1-3.4-4.2a6.55 6.55 0 0 0 3.4-3.8z"/><path id="star3" d="M154.9 20s2.2 4.3 5.1 4.7c0 0-3.8 1.8-5.1 5.3a10 10 0 0 0-5.1-5.2s4.1-1.6 5.1-4.8z"/><path id="star2" d="M82.9 0s2.2 4.3 5.1 4.7c0 0-3.8 1.8-5.1 5.3a10 10 0 0 0-5.1-5.2s4.1-1.6 5.1-4.8z"/><path id="star1" d="M48.9 18.7a2.51 2.51 0 0 0 1.4 1.3 3.33 3.33 0 0 0-1.4 1.4 2.75 2.75 0 0 0-1.4-1.4 3.71 3.71 0 0 0 1.4-1.3z"/></g><g id="clouds"><path id="red-cloud-left" d="M178.4 97.2h43.4c.1-1 .1-.8.1-1 0-1.8-1.8-3.4-4-3.4a4.25 4.25 0 0 0-3 1.1 4.12 4.12 0 0 0-3.2-1.9 3.82 3.82 0 0 0-1.8-1.2 3.37 3.37 0 0 0-3.4-2.2 4 4 0 0 0-2.8 1.2 6.75 6.75 0 0 0-1.4-.2 5.27 5.27 0 0 0-4.1 1.8c-.1-2-2.1-3.7-4.5-3.7a5.12 5.12 0 0 0-2.8.8c-.1-1.9-2-3.4-4.3-3.4s-4.3 1.6-4.3 3.6a3.55 3.55 0 0 0 .2 1c-.3 0-.6-.1-.9-.1-2.8 0-5 2.1-5 4.4a4.8 4.8 0 0 0 1.8 3.2z"/><path id="white-cloud-left" d="M192.9 101.2h30.2a8.14 8.14 0 0 0 .1-.9 2.8 2.8 0 0 0-2.8-2.8 2.72 2.72 0 0 0-2.1.9 2.65 2.65 0 0 0-2.2-1.6 2.56 2.56 0 0 0-1.3-1 2.35 2.35 0 0 0-2.3-1.9 2.28 2.28 0 0 0-1.9 1 3 3 0 0 0-1-.2 3.32 3.32 0 0 0-2.8 1.5 3.2 3.2 0 0 0-3.2-3.1 3.16 3.16 0 0 0-1.9.7 3 3 0 0 0-6 .2c0 .3.1.6.1.8-.2 0-.4-.1-.6-.1a3.72 3.72 0 0 0-3.5 3.7 4.13 4.13 0 0 0 1.2 2.8z"/><path id="red-cloud-right" d="M415.1 98.2a3.68 3.68 0 0 0-3.9-2.9 2.77 2.77 0 0 0-.9.1 3.31 3.31 0 0 0-4.9-.4 4.05 4.05 0 0 0-6.8-2.5 5.08 5.08 0 0 0 .3-1.7 6.63 6.63 0 0 0-13-1.5c-.2 0-.4-.1-.7-.1a4.56 4.56 0 0 0-4.5 3.4 4.19 4.19 0 0 0-1.6-.4 3.6 3.6 0 0 0-3.7 3.1 2.2 2.2 0 0 0-.8-.1 2.88 2.88 0 0 0-2.9 2.8v.1l43.4.1z"/><path id="white-cloud-right" d="M433.1 93.2a3.36 3.36 0 0 0-3.6-2.8 2 2 0 0 0-.8.1 3 3 0 0 0-2.4-1.2 2.72 2.72 0 0 0-2.1.9 3.68 3.68 0 0 0-6.3-2.4 4.68 4.68 0 0 0 .2-1.7 6.08 6.08 0 0 0-12-1.4c-.2 0-.4-.1-.6-.1a4.3 4.3 0 0 0-4.2 3.3 4 4 0 0 0-1.5-.3 3.37 3.37 0 0 0-3.4 3 1.7 1.7 0 0 0-.7-.1 2.75 2.75 0 0 0-2.7 2.7v.1l40.1-.1z"/></g><g id="rocket"><path id="rocket-body" d="M287.5 115s.5-11.1-.7-12.8a45 45 0 0 0-4.8-4.9 43.41 43.41 0 0 0-4.9 4.9c-1.2 1.7-.7 12.8-.7 12.8s-1.4 2.9-1.3 3.5c.1.9 2.6 0 3.2-.6h1.6l.1 1.9h3.9l.1-1.9h1.6c.6.6 3 1.5 3.2.6.1-.6-1.3-3.5-1.3-3.5z" fill="url(#Unbenannter_Verlauf_14)"/><circle id="glass" cx="282" cy="107.3" r="1.9"/><path id="outer-flame" d="M279.5 120.2h4.8a1.29 1.29 0 0 0-.3 1.7.94.94 0 0 0-.3 1s-1 .5-.5.9c0 0-.4 0-.4.9 0 0-.9-1.4-1.5-.3 0 0-.3-1.1-.8-.5 0 0 .3-1.6-.5-.9 0 0 .1-1.5-.4-1.2a1.12 1.12 0 0 0-.1-1.6z"/><path id="inner-flame" d="M280.2 120.2s1.2.8.4 1.1c0 0 .7.5.2 1a.91.91 0 0 1 .7-.3 1.18 1.18 0 0 1 .5.6s.5-1 1-.4c0 0-.2-1.1.3-.7a1.63 1.63 0 0 1-.3-.6 1.87 1.87 0 0 1 .7-.6l-3.5-.1z"/></g><text id="hero-text" transform="translate(242.94 45)" font-size="28" font-family="Montserrat" font-weight="700" letter-spacing="-1" style="isolation:isolate">L<tspan x="14.25" y="0">OGO</tspan></text></symbol><symbol id="layout" viewBox="0 0 453 453"><style>.st0{fill:#da5463}</style><path id="layout-top" class="st0" d="M238.3 112.1H453v264.2H238.3z"/><path id="layout-right" class="st0" d="M0 0h453v88.5H0z"/><path id="layout-left" class="st0" d="M0 112.1h214.7v264.2H0z"/><path id="layout-bottom" class="st0" d="M0 399.9h453v53H0z"/></symbol><symbol id="paper" viewBox="0 0 237.6 325"><style>.st0{fill:#da5463}</style><path id="paper-clip" class="st0" d="M190 325h5.5c1.7 0 3.3-.7 4.5-2l36.1-40.4c1-1.1 1.5-2.5 1.5-4v-4.7H190V325z"/><path id="paper-body" class="st0" d="M231.6 0H6C2.7 0 0 2.7 0 6v313c0 3.3 2.7 6 6 6h168v-59.1c0-4.4 3.6-8 8-8h55.6V6c0-3.3-2.7-6-6-6zM87.2 261.4H33.1c-4.4 0-8-3.6-8-8s3.6-8 8-8h54.1c4.4 0 8 3.6 8 8s-3.6 8-8 8zm117.3-60.6H33.1c-4.4 0-8-3.6-8-8s3.6-8 8-8h171.4c4.4 0 8 3.6 8 8s-3.6 8-8 8zm0-60.6H33.1c-4.4 0-8-3.6-8-8s3.6-8 8-8h171.4c4.4 0 8 3.6 8 8s-3.6 8-8 8zm0-60.6H33.1c-4.4 0-8-3.6-8-8s3.6-8 8-8h171.4c4.4 0 8 3.6 8 8s-3.6 8-8 8z"/></symbol><symbol id="profile-img" viewBox="0 0 381 381"><circle id="profile-circle" class="st0" cx="190.5" cy="190.5" r="190.5"/><path id="silhouette" class="st1" d="M129.4 269.6c-.2 1.6-1.7 3.8-3 4.1-3.8 1.1-5.7 5.2-6.9 9.3l-3.9 12.3L57.5 326c34.3 33.6 81.2 54.4 133 54.4s98.8-20.8 133-54.4l-58.1-30.7-3.9-12.3c-1.2-4.1-3-8.2-6.9-9.3-1.2-.3-2.8-2.6-3-4.1l-2.3-23.9c-.1-2 .7-3.9 1.8-5.2 6.5-7.8 10.1-16.9 11.6-27.3.8-5.2 3.5-10 4.9-15.1l5.5-28.6c.6-3.8.5-6.7-3.7-8.1-1.2-.4-2.2-2.3-2.2-5.2l.1-54c-.9-13.1-7.8-23.2-17.6-30.2-18.7-13.4-52.3-7.2-41.3-29.1.6-1.3.4-3.5-4.1-1.9-16.8 6.2-61.5 22.5-72.8 31-10.1 7.6-16.7 17.1-17.6 30.2l.1 54c0 2.4-1 4.8-2.2 5.2-4.2 1.5-4.3 4.4-3.7 8.1l5.5 28.6c1.4 5.1 4.1 9.9 4.9 15.1 1.5 10.4 5.1 19.4 11.6 27.3 1.1 1.3 1.9 3.1 1.8 5.2l-2.5 23.9z"/></symbol><symbol id="profile-planet" viewBox="0 0 777.26 293.27"><title>profile-planet</title><circle id="planet-circle" cx="574.4" cy="102.5" r="102.5" fill="url(#Unbenannter_Verlauf_297)"/><path id="plantet-shade-1" d="M614.6 8.2s-69.2 19.3-79.2 36.1c-8 13.4-36.2 7.8-48.4 4.7a102 102 0 0 0-13.7 36.9c17.2-4.3 48.8-13.8 67.1-29.3 26-22 67 1.5 76.5 0s32-19.2 35-21.1a101.09 101.09 0 0 0-37.3-27.3z" fill="url(#Unbenannter_Verlauf_368)"/><path id="plantet-shade-2" d="M545.9 82c13.7-5.8 28 6.6 40 3.8s40-5.4 42.5-3.9-5.5 15-13 17-41-9.5-59.5 0c-9.6 5-23-11.4-10-16.9z" fill="#b8505a"/><path id="plantet-shade-3" d="M647.8 174a92.8 92.8 0 0 1-24.4 6c-20.2 2-28.1 14.8-31.1 23.4a101.32 101.32 0 0 0 55.5-29.4z" fill="#b8505a"/><path id="plantet-shade-4" d="M604.4 106.5c-13-4-71-1.5-81 3.5-7.2 3.6-34.4 10.5-49.2 14.1a102.57 102.57 0 0 0 46.5 65.6c37.3 7.8 64.2-27.8 88.2-41.3 13.2-7.4 40.1-10 61.8-10.8a102.58 102.58 0 0 0 6.2-35.2v-2.6c-6.1 3.5-59.5 10.7-72.5 6.7z" fill="url(#Unbenannter_Verlauf_398)"/><path id="planet-outer-1" d="M473.9 122.7l-.6-3.4s-60 15.7-85.9 24.5c-275 93.8 196 41.3 334-22.5 77.2-35.7 86.2-64.4-49.1-49.3l1 3.4c91.1 29.7-274 118.3-199.4 47.3z" fill="url(#Unbenannter_Verlauf_194)"/><path id="planet-outer-2" d="M474.4 125l-.5-2.4s-42.5 13.8-65.8 22.3c-166.7 61.2 167.4 16.3 282-28.5 88.8-34.7 63-42.1-16.8-41.2l.8 3c72.8 22.2-255.8 100.9-199.7 46.8z" fill="url(#Unbenannter_Verlauf_347)"/><path id="planet-outer-2-2" data-name="planet-outer-2" d="M474.4 125l.9 3.8c-6.3 4.3-5.5 11.3 5.3 11.1 73.5-1.2 182.7-37.7 193.7-44.1 13.6-7.9 5-12.3.2-15.3l-.5-2.3s2.2-.4 10.9 2.2c20.3 6-18.11 39.1-146.31 58.6-149.5 23-64.19-14-64.19-14z" fill="url(#Unbenannter_Verlauf_281)"/><path id="planet-star-1" d="M323.18 236c-1.16 6.36-2.12 7.32-8.48 8.48 6.36 1.16 7.32 2.12 8.48 8.48 1.16-6.36 2.12-7.32 8.48-8.48-6.36-1.16-7.31-2.12-8.48-8.48z" fill="url(#Unbenannter_Verlauf_1137)"/><path id="planet-star-2" d="M482.88 277.7c-1.07 5.84-1.95 6.72-7.78 7.78 5.84 1.07 6.72 1.95 7.78 7.78 1.07-5.84 1.95-6.72 7.78-7.78-5.83-1-6.66-1.88-7.78-7.78z" fill="url(#Unbenannter_Verlauf_1127)"/><path id="planet-star-3" d="M7.8 203.4c-1.08 5.85-2 6.72-7.8 7.8 5.85 1.08 6.72 1.95 7.8 7.8 1.08-5.85 2-6.72 7.8-7.8-5.85-1.01-6.72-1.88-7.8-7.8z" fill="url(#Unbenannter_Verlauf_991)"/><path id="planet-star-4" d="M309.32 75.5c-.89 4.92-1.61 5.63-6.62 6.62 4.92.89 5.63 1.61 6.62 6.62.89-4.92 1.61-5.63 6.62-6.62-5.01-.99-5.73-1.7-6.62-6.62z" fill="url(#Unbenannter_Verlauf_975)"/><path id="planet-star-5" d="M178.93 258.1c-1.25 6.59-2.23 7.57-8.73 8.73 6.59 1.25 7.57 2.23 8.73 8.73 1.25-6.59 2.23-7.57 8.73-8.73-6.59-1.16-7.57-2.14-8.73-8.73z" fill="url(#Unbenannter_Verlauf_1019)"/><path id="planet-star-6" d="M132.3 120.1c-.7 3.7-1.2 4.2-4.9 4.9 3.7.7 4.2 1.2 4.9 4.9.7-3.7 1.2-4.2 4.9-4.9-3.7-.6-4.2-1.2-4.9-4.9z" fill="url(#Unbenannter_Verlauf_1149)"/><path id="planet-star-7" d="M84 80.4c-1 5.41-1.83 6.21-7.16 7.16 5.41 1 6.21 1.83 7.16 7.16 1-5.41 1.83-6.21 7.16-7.16C85.79 86.54 85 85.74 84 80.4z" fill="url(#Unbenannter_Verlauf_990)"/></symbol><symbol id="random-icon" viewBox="0 0 50.2 26.8"><path fill="none" stroke="#FFF" stroke-width="3" stroke-linecap="round" stroke-linejoin="round" stroke-miterlimit="10" d="M48.8 1.7L25.2 25.2 1.7 1.7"/></symbol><symbol id="signal" viewBox="0 0 196 196"><style>.st0{fill:#FFF}</style><circle id="signal-circle" cx="98" cy="98" r="98"/><g id="signal-inner"><path id="wave-3" class="st0" d="M121.9 106.5c-2.2-9.3-7.7-17.5-15.5-23.1-7.7-5.6-17.3-8.3-26.8-7.5-.3 0-.5.1-.7.1-2.1.4-3.2 1.5-2.9 3l.8 4.8c.4 2.6 2.5 2.3 3.4 2.2h.4c14.5-1.1 27.6 8.3 31.2 22.3v.1c.2.8.7 2.8 3 2.4l5.1-.9c.9-.2 1.5-.5 1.8-1 .5-.7.3-1.6.1-2.3.1.1.1 0 .1-.1z"/><path id="wave-2" class="st0" d="M120.7 63.5c-13-9.4-28.9-13.6-44.8-11.9h-.3c-.4 0-.8.1-1.2.1-1.9.3-2.8 1.2-2.6 2.7l.9 5.4c.4 2.3 3.2 2.1 4.7 1.9h.3C105 59 130.1 77.3 136.1 104c.2.8.7 3.1 2.9 2.7l5.7-1c.6-.1 1-.4 1.3-.8.5-.8.4-1.9.2-2.6-3.4-15.6-12.5-29.4-25.5-38.8z"/><path id="wave-1" class="st0" d="M169.8 97.5c-4.6-21.6-17-40.6-34.9-53.6C117 31 95.1 25.2 73.2 27.6H73c-.5 0-1 .1-1.6.2-2.7.5-3.9 1.5-3.6 3.2l.9 5.1c.4 2.6 3.4 2.1 5.3 1.8.4-.1.8-.1 1.1-.2 40-4 76.4 22.5 84.8 61.8 0 .1 0 .2.1.3.2 1.1.6 3.3 3.3 2.8l4.7-.8c.7-.1 1.3-.5 1.6-1 .6-1 .4-2.4.2-3.3z"/><ellipse id="signal-inner-circle" transform="rotate(-9.782 82.85 115.96)" class="st0" cx="82.8" cy="115.9" rx="14.4" ry="14.4"/></g></symbol><symbol id="stamp" viewBox="0 0 523.4 612"><style>.st0{fill:#da5463}</style><path id="stamp-bottom" class="st0" d="M484 555.3H39.4c-8 0-14.6 6.5-14.6 14.6v27.6c0 8 6.5 14.6 14.6 14.6H484c8 0 14.6-6.5 14.6-14.6v-27.6c0-8.1-6.5-14.6-14.6-14.6z"/><path id="stamp-body" class="st0" d="M509.8 433c-1.5-8.6-5.2-19.2-13.6-28.6-11.8-13.2-29.4-19.8-52.2-19.8-50.4 0-130.5-34.7-130.5-127.9 0-50.5 30.5-111.1 30.8-111.7l.3-.6c8.6-14.7 13.2-31.4 13.2-48.4 0-52.9-43.1-96-96-96s-96 43.1-96 96c0 17 4.5 33.6 13.2 48.4l.3.6c.3.6 30.8 61.3 30.8 111.7 0 93.2-80 127.9-130.5 127.9-22.8 0-40.4 6.7-52.2 19.8-8.4 9.4-12.1 20-13.6 28.6C6 433.5 0 439.8 0 447.5v80.3c0 8 6.5 14.6 14.6 14.6h494.3c8 0 14.6-6.5 14.6-14.6v-80.3c-.1-7.7-6.1-14-13.7-14.5z"/></symbol><symbol id="telescope" viewBox="0 0 196 196"><circle id="telescope-circle" class="st0" cx="98" cy="98" r="98"/><path id="telescope-body" d="M162.4 73.6l-49.1 27.1v12.8l26.3 38.1c1.6 2.3 1.2 5.5-1.1 7.1-.9.6-1.9.9-2.9.9-1.6 0-3.3-.8-4.3-2.2l-22.8-33.2V148c0 2.8-2.3 5.1-5.1 5.1s-5.1-2.3-5.1-5.1v-23.8l-22.6 33.2c-1 1.4-2.5 2.2-4.1 2.2-1 0-1.9-.3-2.8-.9-2.3-1.6-2.9-4.8-1.3-7.1l26.1-38.1V112l-8.7 4.8-20.2-36.3 77.9-43.2c1-.6 2.2-.8 3.3-.8 2.4 0 4.6 1.2 5.9 3.4l13.5 24.5c1.7 3.3.3 7.4-2.9 9.2zm-87.7 48.8l1.2-.7-20.1-36.2-1.2.7c-6.1 3.4-8.2 11-4.9 17.1l1.3 2.3-10.5 5.8-1-1.8c-1.4-2.5-4.5-3.4-6.9-2-2.5 1.4-3.4 4.5-2 6.9l6.9 12.5c.9 1.7 2.7 2.6 4.5 2.6.8 0 1.7-.2 2.5-.6 2.5-1.4 3.4-4.5 2-6.9l-1-1.8 10.5-5.8 1.7 3c3.3 6 10.9 8.2 17 4.9z"/></symbol><symbol id="twitter-footer" viewBox="0 0 612 497.1"><path id="bird-footer" class="st0" d="M612 58.8c-22.5 10-46.7 16.7-72.1 19.8 25.9-15.5 45.8-40.2 55.2-69.4-24.3 14.4-51.2 24.8-79.8 30.5C492.4 15.2 459.8 0 423.7 0c-69.3 0-125.6 56.2-125.6 125.5 0 9.8 1.1 19.4 3.3 28.6-104.3-5.2-196.8-55.2-258.8-131.2C31.8 41.5 25.7 63 25.7 86c0 43.6 22.2 82 55.8 104.5-20.6-.7-39.9-6.3-56.9-15.8v1.6c0 60.8 43.3 111.6 100.7 123.1-10.5 2.8-21.6 4.4-33.1 4.4-8.1 0-15.9-.8-23.6-2.3 16 49.9 62.3 86.2 117.3 87.2C143 422.4 88.8 442.4 30 442.4c-10.1 0-20.1-.6-29.9-1.7 55.6 35.7 121.5 56.5 192.4 56.5 230.9 0 357.2-191.3 357.2-357.2l-.4-16.3c24.6-17.6 45.9-39.7 62.7-64.9z"/></symbol><symbol id="twitter" viewBox="0 0 612 497.1"><path id="bird" class="st0" d="M612 58.8c-22.5 10-46.7 16.7-72.1 19.8 25.9-15.5 45.8-40.2 55.2-69.4-24.3 14.4-51.2 24.8-79.8 30.5C492.4 15.2 459.8 0 423.7 0c-69.3 0-125.6 56.2-125.6 125.5 0 9.8 1.1 19.4 3.3 28.6-104.3-5.2-196.8-55.2-258.8-131.2C31.8 41.5 25.7 63 25.7 86c0 43.6 22.2 82 55.8 104.5-20.6-.7-39.9-6.3-56.9-15.8v1.6c0 60.8 43.3 111.6 100.7 123.1-10.5 2.8-21.6 4.4-33.1 4.4-8.1 0-15.9-.8-23.6-2.3 16 49.9 62.3 86.2 117.3 87.2C143 422.4 88.8 442.4 30 442.4c-10.1 0-20.1-.6-29.9-1.7 55.6 35.7 121.5 56.5 192.4 56.5 230.9 0 357.2-191.3 357.2-357.2l-.4-16.3c24.6-17.6 45.9-39.7 62.7-64.9z"/></symbol><symbol id="underline" viewBox="0 0 259.3 8.6"><path id="underline-right" class="st0" fill="#fff" d="M111.2 8.6H1.6C.7 8.6 0 7.9 0 7V1.6C0 .7.7 0 1.6 0h109.6c.9 0 1.6.7 1.6 1.6V7c.1.9-.7 1.6-1.6 1.6z"/><path id="underline-dot" class="st0" fill="#fff" d="M125.3 0h8.9v8.6h-8.9z"/><path id="underline-left" class="st0" fill="#fff" d="M257.7 8.6H148.1c-.9 0-1.6-.7-1.6-1.6V1.6c0-.9.7-1.6 1.6-1.6h109.6c.9 0 1.6.7 1.6 1.6V7c0 .9-.7 1.6-1.6 1.6z"/></symbol></svg>