<?xml version="1.0" encoding="UTF-8"?><!DOCTYPE svg PUBLIC "-//W3C//DTD SVG 1.1//EN" "http://www.w3.org/Graphics/SVG/1.1/DTD/svg11.dtd"><svg xmlns="http://www.w3.org/2000/svg" xmlns:xlink="http://www.w3.org/1999/xlink"><defs><path d="M507 12v5h5v-2h-3v-3h-2zm0-6V1h5v2h-3v3h-2zm20 6v5h-5v-2h3v-3h2zm0-6V1h-5v2h3v3h2z" id="path-1"/><filter x="-50%" y="-50%" width="200%" height="200%" filterUnits="objectBoundingBox" id="filter-2"><feOffset dy="1" in="SourceAlpha" result="shadowOffsetOuter1"/><feColorMatrix values="0 0 0 0 0 0 0 0 0 0 0 0 0 0 0 0 0 0 1 0" in="shadowOffsetOuter1"/></filter></defs><symbol id="camera" viewBox="0 0 35.21 29.18"><title>camera</title><path id="camera-outer" d="M34.69 7.93A35 35 0 0 0 25.54 5l-.22-.92A5.3 5.3 0 0 0 20.14 0h-5.06a5.31 5.31 0 0 0-5.19 4.12L9.67 5A34.68 34.68 0 0 0 .52 7.93a1 1 0 0 0-.52.86v11.48a8.36 8.36 0 0 0 8.35 8.35 1 1 0 0 0 0-1.95 6.4 6.4 0 0 1-6.4-6.4V9.41a36.44 36.44 0 0 1 8.7-2.56 1 1 0 0 0 .78-.74l.36-1.55a3.36 3.36 0 0 1 3.29-2.61h5.06a3.36 3.36 0 0 1 3.29 2.61l.36 1.55a1 1 0 0 0 .78.74 36.79 36.79 0 0 1 8.7 2.56v10.86a6.4 6.4 0 0 1-6.4 6.4 1 1 0 0 0 0 1.95 8.36 8.36 0 0 0 8.35-8.35V8.79a1 1 0 0 0-.53-.86z"/><path id="camera-button" d="M3.19 5.94a.89.89 0 0 0 .3-.05c1-.34 2.1-.64 3.2-.9a1 1 0 0 0-.44-1.89C5.1 3.37 4 3.69 2.88 4a1 1 0 0 0-.62 1.23 1 1 0 0 0 .93.71z"/><path id="camera-lens" d="M17.61 6.74A11.22 11.22 0 1 0 28.83 18 11.23 11.23 0 0 0 17.61 6.74zm0 20.5A9.27 9.27 0 1 1 26.88 18a9.28 9.28 0 0 1-9.27 9.23z"/></symbol><symbol id="chat" viewBox="0 0 473 473"><path d="M403.58 69.3C358.88 24.6 299.58 0 236.38 0s-122.5 24.6-167.2 69.3c-86.4 86.4-92.4 224.7-14.9 318-7.6 15.3-19.8 33.1-37.9 42-8.7 4.3-13.6 13.6-12.1 23.2s8.9 17.1 18.5 18.6c4.5.7 10.9 1.4 18.7 1.4 20.9 0 51.7-4.9 83.2-27.6 35.1 18.9 73.5 28.1 111.6 28.1 61.2 0 121.8-23.7 167.4-69.3 44.7-44.7 69.3-104 69.3-167.2s-24.7-122.5-69.4-167.2zm-19.1 315.3c-67.5 67.5-172 80.9-254.2 32.6-5.4-3.2-12.1-2.2-16.4 2.1-.4.2-.8.5-1.1.8-27.1 21-53.7 25.4-71.3 25.4h-.1c20.3-14.8 33.1-36.8 40.6-53.9 1.2-2.9 1.4-5.9.7-8.7-.3-2.7-1.4-5.4-3.3-7.6-73.2-82.7-69.4-208.7 8.8-286.9 81.7-81.7 214.6-81.7 296.2 0 81.8 81.7 81.8 214.5.1 296.2z"/><circle cx="236.381" cy="236.5" r="16.6"/><circle cx="321.981" cy="236.5" r="16.6"/><circle cx="150.781" cy="236.5" r="16.6"/></symbol><symbol id="desktop" viewBox="0 0 64.06 45.5"><title>desktop</title><path id="desktop-frame" stroke-width="6" d="M64.07 39.19H0V0h64.06v39.19zm-63.06-1h62.06V1H1v37.19z"/><path id="desktop-stand" d="M25.38 44.5h14v1h-14z"/></symbol><symbol id="headphones" viewBox="0 0 29.74 29.47"><title>headphones</title><path id="headphones-body" d="M29.74 14.87A14.87 14.87 0 0 0 4.35 4.35 14.78 14.78 0 0 0 0 14.87v7a7.23 7.23 0 0 0 7.22 7.22.86.86 0 0 0 .86-.86V15.56a.86.86 0 0 0-.86-.86 7.19 7.19 0 0 0-5.5 2.55v-2.38a13.15 13.15 0 1 1 26.3 0A.79.79 0 0 0 28 15a.79.79 0 0 0 0 .17v2.37A7.19 7.19 0 0 0 22.52 15a.86.86 0 0 0-.86.86v12.75a.86.86 0 0 0 .86.86 7.23 7.23 0 0 0 7.22-7.22v-7a.79.79 0 0 0 0-.17.79.79 0 0 0 0-.21zM6.35 16.48v10.86a5.5 5.5 0 0 1 0-10.86zm17 11.2V16.82a5.5 5.5 0 0 1 .04 10.86z"/></symbol><symbol id="heart" viewBox="0 0 471.701 471.701"><path d="M433.6 67c-24.7-24.7-57.4-38.2-92.3-38.2s-67.7 13.6-92.4 38.3L236 80l-13.1-13.1c-24.7-24.7-57.6-38.4-92.5-38.4-34.8 0-67.6 13.6-92.2 38.2C13.5 91.4-.1 124.2 0 159.1c0 34.9 13.7 67.6 38.4 92.3l187.8 187.8c2.6 2.6 6.1 4 9.5 4 3.4 0 6.9-1.3 9.5-3.9l188.2-187.5c24.7-24.7 38.3-57.5 38.3-92.4.1-34.9-13.4-67.7-38.1-92.4zm-19.2 165.7l-178.7 178L57.4 232.4C37.8 212.8 27 186.8 27 159.1s10.7-53.7 30.3-73.2c19.5-19.5 45.5-30.3 73.1-30.3 27.7 0 53.8 10.8 73.4 30.4l22.6 22.6c5.3 5.3 13.8 5.3 19.1 0l22.4-22.4c19.6-19.6 45.7-30.4 73.3-30.4 27.6 0 53.6 10.8 73.2 30.3 19.6 19.6 30.3 45.6 30.3 73.3.1 27.7-10.7 53.7-30.3 73.3z"/></symbol><symbol id="house" viewBox="0 0 489.4 427.3"><title>house</title><path d="M347.7 232.7h-66.5a33 33 0 0 0-33 33v51a33 33 0 0 0 33 33h66.5a33 33 0 0 0 33-33v-51a33 33 0 0 0-33-33zm9 84a9 9 0 0 1-9 9h-66.5a9 9 0 0 1-9-9v-51a9 9 0 0 1 9-9h66.5a9 9 0 0 1 9 9v51z"/><path d="M489.4 140a11.14 11.14 0 0 0-1.6-5.9L415 6.1A12.06 12.06 0 0 0 404.6 0H84.7a11.86 11.86 0 0 0-10.4 6.1l-72.7 128A12.13 12.13 0 0 0 0 140a70.2 70.2 0 0 0 42 64.2v211.1a12 12 0 0 0 12 12h381.3a12 12 0 0 0 12-12V205.7a5.28 5.28 0 0 0-.1-1.3 70.39 70.39 0 0 0 42.2-64.4zM91.7 24.1h305.9l56.9 100.1H34.9zm256.6 124a46.12 46.12 0 0 1-90.8 0h90.8zm-116.3 0a46.18 46.18 0 0 1-90.9 0H232zm-207.2 0h90.9a46.18 46.18 0 0 1-90.9 0zm176.8 255.2h-69V273.8a17.09 17.09 0 0 1 17.1-17.1h34.9a17.09 17.09 0 0 1 17.1 17.1v129.5h-.1zm221.7 0H225.6V273.8a41.16 41.16 0 0 0-41.1-41.1h-34.9a41.16 41.16 0 0 0-41.1 41.1v129.6H66V210.1c1.4.1 2.8.1 4.2.1a70.11 70.11 0 0 0 58.2-31 70.13 70.13 0 0 0 116.4 0 69.95 69.95 0 0 0 116.2 0 70.11 70.11 0 0 0 58.2 31c1.4 0 2.7-.1 4.1-.1v193.2zm-4.1-217.1a46.1 46.1 0 0 1-45.4-38h90.9a46.38 46.38 0 0 1-45.5 38z"/></symbol><symbol id="kalendar" viewBox="0 0 612 564.65"><title>kalendar</title><path d="M566.16 59.2h-60V25.9A26.24 26.24 0 0 0 480.31 0h-37a26.24 26.24 0 0 0-25.9 25.9v33.3H197.6V25.9A26.24 26.24 0 0 0 171.71 0h-37a26.24 26.24 0 0 0-25.9 25.9v33.3h-62.9A46.13 46.13 0 0 0 0 105.11v413.64a46.13 46.13 0 0 0 45.91 45.91h520.18A46.13 46.13 0 0 0 612 518.75V105.11a46.07 46.07 0 0 0-45.84-45.91zM444.82 28.09h34.05v81.4h-34.05v-81.4zm-308.6 0h34.05v81.4h-34.06v-81.4zM46.66 86.61h62.9V111a26.24 26.24 0 0 0 25.9 25.9h37a26.24 26.24 0 0 0 25.9-25.9V86.61h219.05V111a26.24 26.24 0 0 0 25.9 25.9h37a26.24 26.24 0 0 0 25.9-25.9V86.61h60.71a18.34 18.34 0 0 1 18.5 18.5v74H28.16v-74a18.29 18.29 0 0 1 18.5-18.5zm519.5 450.64H46.66a18.34 18.34 0 0 1-18.5-18.5v-312.3h556.5v312.3a18.34 18.34 0 0 1-18.5 18.5zM148.82 281.2a13.22 13.22 0 0 1-13.29 13.29h-44.4a13.29 13.29 0 1 1 0-26.58h44.4c7.33-.76 13.29 5.89 13.29 13.29zm128 0a13.22 13.22 0 0 1-13.29 13.29h-44.4a13.29 13.29 0 1 1 0-26.58h44.4c6.64-.76 13.28 5.89 13.28 13.29zm127.31 0a13.22 13.22 0 0 1-13.29 13.29h-44.4a13.29 13.29 0 1 1 0-26.58h44.4c7.32-.76 13.28 5.89 13.28 13.29zm128 0a13.22 13.22 0 0 1-13.29 13.29h-44.4a13.29 13.29 0 1 1 0-26.58h44.4c7.38-.76 13.27 5.89 13.27 13.29zm-383.29 91a13.22 13.22 0 0 1-13.29 13.29H91.13a13.29 13.29 0 1 1 0-26.58h44.4a13.26 13.26 0 0 1 13.29 13.28zm128 0a13.22 13.22 0 0 1-13.29 13.29h-44.4a13.29 13.29 0 1 1 0-26.58h44.4c6.62-.01 13.26 5.88 13.26 13.28zm127.31 0a13.22 13.22 0 0 1-13.29 13.29h-44.4a13.29 13.29 0 1 1 0-26.58h44.4a13.26 13.26 0 0 1 13.26 13.28zm128 0a13.22 13.22 0 0 1-13.29 13.29h-44.4a13.29 13.29 0 1 1 0-26.58h44.4a13.22 13.22 0 0 1 13.25 13.28zM148.82 464a13.22 13.22 0 0 1-13.29 13.29h-44.4a13.29 13.29 0 1 1 0-26.58h44.4c7.33-.82 13.29 5.14 13.29 13.29zm128 0a13.22 13.22 0 0 1-13.29 13.29h-44.4a13.29 13.29 0 0 1 0-26.58h44.4c6.64-.82 13.28 5.14 13.28 13.29zm127.31 0a13.22 13.22 0 0 1-13.29 13.29h-44.4a13.29 13.29 0 0 1 0-26.58h44.4c7.32-.82 13.28 5.14 13.28 13.29zm128 0a13.22 13.22 0 0 1-13.29 13.29h-44.4a13.29 13.29 0 1 1 0-26.58h44.4c7.38-.82 13.27 5.14 13.27 13.29z"/></symbol><symbol id="like-shine" viewBox="0 0 395 484.4"><title>like-shine</title><path d="M120.2 197.5a12 12 0 0 0-12-12H12a12 12 0 0 0 0 24h96.2a12 12 0 0 0 12-12zM383 185.5h-96.2a12 12 0 0 0 0 24H383a12 12 0 0 0 0-24zM197.5 120.2a12 12 0 0 0 12-12V12a12 12 0 0 0-24 0v96.2a12 12 0 0 0 12 12zM260.6 146.4a12.21 12.21 0 0 0 8.5-3.5l68.1-68.1a12 12 0 0 0-17-17l-68.1 68.1a12 12 0 0 0 0 17 12.39 12.39 0 0 0 8.5 3.5zM125.9 142.9a12 12 0 0 0 8.5 3.5 12.21 12.21 0 0 0 8.5-3.5 12 12 0 0 0 0-17L74.8 57.8a12 12 0 0 0-17 17z"/><path d="M341.7 273.2a49.8 49.8 0 0 0-32.3-12.1h-68.7v-48.5c0-23.2-6.9-40.1-20.6-50.2-21.6-15.8-50.9-6.9-52.2-6.5a12 12 0 0 0-8.4 11.4v58.5c0 17.8-8.5 32.9-25.4 45a102.36 102.36 0 0 1-27.6 13.9l-1.2.3a24.55 24.55 0 0 0-18.5-8.3H41.2a24.75 24.75 0 0 0-24.7 24.7V451a24.75 24.75 0 0 0 24.7 24.7H87a24.35 24.35 0 0 0 15.8-5.8 50.37 50.37 0 0 0 35.2 14.5h143.3c14.4 0 27.1-3.5 36.8-10 12.4-8.4 20.1-21.7 22.3-38.7l18.5-115a51.72 51.72 0 0 0-17.2-47.5zM87.7 451a.68.68 0 0 1-.7.7H41.2a.68.68 0 0 1-.7-.7V301.4a.68.68 0 0 1 .7-.7H87a.68.68 0 0 1 .7.7V451zm247.5-134l-18.5 115.2a1.09 1.09 0 0 1-.1.5c-.8 6.9-3.4 27.8-35.3 27.8H138a26.59 26.59 0 0 1-26-22.3c-.1-.5-.2-1-.3-1.4V308.2l.7-.2c.2 0 .3-.1.5-.1a122.08 122.08 0 0 0 34.6-17.1c23.5-16.7 36-39.2 36-65v-48.6c6.6-.7 15.7-.4 22.4 4.5 7.2 5.3 10.8 15.7 10.8 30.8V273a12 12 0 0 0 12 12h80.7a26.27 26.27 0 0 1 16.7 6.3 28.2 28.2 0 0 1 9.1 25.7z"/></symbol><symbol id="like" viewBox="0 0 28.73 29.55"><title>like</title><path id="like-hand" d="M27.87 20.09a3.67 3.67 0 0 0 .86-2.45 3.77 3.77 0 0 0-.8-2.13 3.3 3.3 0 0 0-.78-3.8c-1-.9-2.65-1.3-5-1.19a19.39 19.39 0 0 0-3 .39l-1 .2a10.78 10.78 0 0 1 .77-3.59c.87-2.63.82-4.65-.16-6A3.93 3.93 0 0 0 15.62 0a1.55 1.55 0 0 0-1.19.54 4.16 4.16 0 0 0-.52 2.95c-.82 2.19-3.1 7.55-5 9l-.1.09A6.64 6.64 0 0 0 7.6 14.4a2.55 2.55 0 0 0-1.22-.31H2.57A2.57 2.57 0 0 0 0 16.7v10a2.57 2.57 0 0 0 2.57 2.57h3.77a2.57 2.57 0 0 0 1.48-.47l1.46.2a62.22 62.22 0 0 0 8.24.45c.74.06 1.43.09 2.07.09a13.87 13.87 0 0 0 2.87-.26 5.37 5.37 0 0 0 3.84-2.39 3.78 3.78 0 0 0 .42-2.37 3.94 3.94 0 0 0 1.4-3.21 4.17 4.17 0 0 0-.25-1.22zm-25.3 7.55a.9.9 0 0 1-.9-.9v-10a.9.9 0 0 1 .9-.9h3.77a.9.9 0 0 1 .9.9v10a.9.9 0 0 1-.9.9H2.57zm23.71-8.28a.83.83 0 0 0-.11 1 2.57 2.57 0 0 1 .28 1 2.47 2.47 0 0 1-1.16 2.14.84.84 0 0 0-.28 1 2.18 2.18 0 0 1-.17 1.59 3.87 3.87 0 0 1-2.73 1.57 16.28 16.28 0 0 1-4.51.14h-.08a61 61 0 0 1-8-.44l-.62-.07a2.62 2.62 0 0 0 .06-.54v-10a2.61 2.61 0 0 0-.12-.77 5.17 5.17 0 0 1 1.15-2.12c2.77-2.2 5.49-9.62 5.61-9.94a.78.78 0 0 0 0-.41 3.86 3.86 0 0 1 .08-1.79 2.22 2.22 0 0 1 1.74.83c.58.81.58 2.37-.08 4.45-1 3.15-1.12 4.8-.3 5.53a1.35 1.35 0 0 0 1.35.24c.38-.09.74-.16 1.08-.22h.08c1.9-.41 5.3-.67 6.48.41a1.78 1.78 0 0 1 .21 2.26.83.83 0 0 0 .15 1.08 2.34 2.34 0 0 1 .69 1.44 2.3 2.3 0 0 1-.8 1.63z"/></symbol><symbol id="logo" viewBox="0 0 298.44 180.27"><title>logo</title><path d="M257.27 14.87C241.67 4.41 224.25.3 205.67.1s-37.81 0-55.81 0V0H98.81a143.06 143.06 0 0 0-25.26 2C32.87 9.33 1.52 44.18.07 85.44c-1.31 37.06 14.87 65.06 47.08 83.46 15.16 8.66 31.91 11.29 49.14 11.32q52 .09 104 0a135.57 135.57 0 0 0 26.65-2.41c39.42-7.94 69.68-42.4 71.39-82.51C299.8 61 285.81 34 257.27 14.87zm-19.23 79.29c-1.38 12.38-12 23.1-25 25.24a74.43 74.43 0 0 1-12 .7h-52.2v-.19c-20 0-39.54.26-59.34-.09a29.65 29.65 0 0 1-5-58.84A61 61 0 0 1 95.94 60h106.55c5.84 0 11.63.44 17.13 2.65 12.72 5.15 19.97 17.55 18.42 31.51z" fill="#fff"/></symbol><symbol id="monitor" viewBox="0 0 32.6 29.29"><title>monitor</title><path id="monitor-body" d="M28.58 0H4a4 4 0 0 0-4 4v15.6a4 4 0 0 0 4 4h11.39v3.84H9.72a.91.91 0 1 0 0 1.83h13.16a.91.91 0 1 0 0-1.83h-5.66v-3.82h11.36a4 4 0 0 0 4-4V4a4 4 0 0 0-4-4zM4 1.83h24.59A2.2 2.2 0 0 1 30.78 4v13h-29V4A2.19 2.19 0 0 1 4 1.83zm24.56 20H4a2.2 2.2 0 0 1-2.17-2.23v-.73h28.95v.73a2.2 2.2 0 0 1-2.2 2.19z"/></symbol><symbol id="pencil" viewBox="0 0 469.33 469.28"><title>pencil</title><path d="M438.93 30.38a103.51 103.51 0 0 0-146.5 0l-268.6 268.5a13.44 13.44 0 0 0-3.8 7.7L.13 454a13.39 13.39 0 0 0 3.8 11.3 13.66 13.66 0 0 0 9.5 4 10.87 10.87 0 0 0 1.8-.1l88.8-12a13.52 13.52 0 0 0-3.6-26.8l-71.2 9.6 13.9-102.8 108.2 108.2a13.66 13.66 0 0 0 9.5 4 13.24 13.24 0 0 0 9.5-4l268.6-268.5a103.45 103.45 0 0 0 0-146.52zm-141.3 33l45.1 45.1-245.1 245.09-45.1-45.1zm-136.7 353.4l-44.1-44.1 245.1-245.1 44.1 44.1zm263.9-264.4L316.93 44.47a76.65 76.65 0 0 1 107.9 107.91z"/></symbol><symbol id="photo-camera" viewBox="0 0 487.7 487.7"><path d="M480.5 151.65c-2-1.1-48.8-25.4-126.8-40.1l-3-12.8c-7.8-33.5-37.3-57-71.8-57h-70.1c-34.4 0-63.9 23.4-71.8 57l-3 12.8c-78 14.6-124.8 39-126.8 40.1-4.4 2.3-7.2 6.9-7.2 11.9v159c0 63.7 51.8 115.6 115.6 115.6 7.5 0 13.5-6 13.5-13.5s-6-13.5-13.5-13.5c-48.8 0-88.6-39.7-88.6-88.6v-150.5c16.2-7.4 59-24.9 120.5-35.5 5.3-.9 9.6-5 10.8-10.2l5-21.5c5-21.2 23.6-36.1 45.5-36.1h70.1c21.8 0 40.5 14.8 45.5 36.1l5 21.5c1.2 5.3 5.5 9.3 10.8 10.2 61.3 10.6 104.2 28.1 120.5 35.5v150.5c0 48.8-39.7 88.6-88.6 88.6-7.5 0-13.5 6-13.5 13.5s6 13.5 13.5 13.5c63.7 0 115.6-51.8 115.6-115.6v-159c0-5-2.7-9.6-7.2-11.9z"/><path d="M44.2 124.05c1.4 0 2.8-.2 4.2-.7 14.2-4.7 29.1-8.9 44.3-12.5 7.3-1.7 11.7-9 10-16.2-1.7-7.3-9-11.7-16.2-10-15.9 3.8-31.6 8.2-46.6 13.1-7.1 2.3-10.9 10-8.6 17 2 5.7 7.3 9.3 12.9 9.3zM243.9 135.05c-85.7 0-155.4 69.7-155.4 155.4s69.7 155.5 155.4 155.5 155.4-69.7 155.4-155.4-69.7-155.5-155.4-155.5zm0 283.9c-70.8 0-128.4-57.6-128.4-128.4s57.6-128.5 128.4-128.5 128.4 57.6 128.4 128.4-57.6 128.5-128.4 128.5z"/></symbol><symbol id="play" viewBox="0 0 314.07 314.06"><title>play</title><path id="play-border" d="M293 78.53A157 157 0 1 0 235.53 293 157 157 0 0 0 293 78.53zM157 303.32A146.29 146.29 0 1 1 303.32 157 146.29 146.29 0 0 1 157 303.32z" fill="#fff"/><path id="play-button" d="M131.34 102.7c-7.49-4.37-13.53-.88-13.49 7.79l.42 95.17c0 8.66 6.16 12.19 13.67 7.85l81.59-47.1c7.51-4.33 7.52-11.39 0-15.76z" fill="#fff"/></symbol><symbol id="search" viewBox="0 0 450.9 451"><title>search</title><path d="M447 428L337.4 318.4a191.52 191.52 0 0 0 47.2-126.1C384.6 86.2 298.3 0 192.3 0S0 86.3 0 192.3s86.3 192.3 192.3 192.3a191.52 191.52 0 0 0 126.1-47.2L428 447a13.59 13.59 0 0 0 9.5 4 13.17 13.17 0 0 0 9.5-4 13.52 13.52 0 0 0 0-19zM26.9 192.3C26.9 101.1 101.1 27 192.2 27s165.3 74.2 165.3 165.3-74.1 165.4-165.3 165.4S26.9 283.5 26.9 192.3z"/></symbol><symbol id="settings" viewBox="0 0 29.3 29.3"><title>settings</title><path id="settings-outer" d="M27.8 11.57l-2.06-.35a11.61 11.61 0 0 0-.83-2l1.21-1.7a1.8 1.8 0 0 0-.2-2.33l-1.81-1.81a1.8 1.8 0 0 0-1.28-.53 1.78 1.78 0 0 0-1 .34l-1.7 1.21A11.49 11.49 0 0 0 18 3.54l-.34-2A1.81 1.81 0 0 0 15.88 0h-2.57a1.81 1.81 0 0 0-1.79 1.51l-.36 2.08a11.33 11.33 0 0 0-2 .84L7.49 3.22a1.81 1.81 0 0 0-2.33.2L3.33 5.24a1.81 1.81 0 0 0-.2 2.33l1.23 1.72a11.34 11.34 0 0 0-.81 2l-2 .34A1.81 1.81 0 0 0 0 13.42V16a1.81 1.81 0 0 0 1.51 1.79l2.08.36a11.33 11.33 0 0 0 .84 2l-1.2 1.66a1.8 1.8 0 0 0 .2 2.33L5.25 26a1.8 1.8 0 0 0 1.28.53 1.78 1.78 0 0 0 1-.34l1.72-1.22a11.58 11.58 0 0 0 1.93.8l.34 2.06a1.81 1.81 0 0 0 1.79 1.51h2.58a1.81 1.81 0 0 0 1.79-1.51l.35-2.06a11.61 11.61 0 0 0 2-.83l1.7 1.21a1.8 1.8 0 0 0 1.05.34 1.8 1.8 0 0 0 1.28-.53l1.82-1.82a1.81 1.81 0 0 0 .2-2.33l-1.21-1.7a11.53 11.53 0 0 0 .83-2l2.06-.34a1.81 1.81 0 0 0 1.51-1.79v-2.62a1.79 1.79 0 0 0-1.47-1.79zm-.14 4.36a.16.16 0 0 1-.13.16l-2.53.44a.82.82 0 0 0-.66.61 9.8 9.8 0 0 1-1.07 2.56.83.83 0 0 0 0 .9l1.51 2.13a.17.17 0 0 1 0 .21l-1.82 1.82a.16.16 0 0 1-.12 0 .15.15 0 0 1-.09 0l-2.15-1.49a.83.83 0 0 0-.9 0 9.8 9.8 0 0 1-2.56 1.07.81.81 0 0 0-.61.66l-.43 2.53a.16.16 0 0 1-.16.13h-2.58a.16.16 0 0 1-.16-.13L12.77 25a.82.82 0 0 0-.61-.66 10.17 10.17 0 0 1-2.51-1 .85.85 0 0 0-.42-.11.81.81 0 0 0-.48.15l-2.13 1.45a.18.18 0 0 1-.09 0 .16.16 0 0 1-.12 0L4.59 23a.17.17 0 0 1 0-.21l1.51-2.11a.84.84 0 0 0 0-.91A9.71 9.71 0 0 1 5 17.21a.84.84 0 0 0-.66-.61l-2.59-.44a.16.16 0 0 1-.1-.16v-2.58a.16.16 0 0 1 .13-.16l2.55-.43a.83.83 0 0 0 .67-.61 9.79 9.79 0 0 1 1-2.57.82.82 0 0 0 0-.89L4.49 6.62a.17.17 0 0 1 0-.21l1.84-1.83a.16.16 0 0 1 .12 0 .15.15 0 0 1 .09 0l2.11 1.49a.84.84 0 0 0 .91 0A9.71 9.71 0 0 1 12.11 5a.84.84 0 0 0 .61-.66l.44-2.59a.16.16 0 0 1 .16-.13h2.58a.16.16 0 0 1 .16.13l.43 2.55a.83.83 0 0 0 .61.7 9.94 9.94 0 0 1 2.63 1.08.83.83 0 0 0 .9 0l2.11-1.52a.18.18 0 0 1 .09 0 .16.16 0 0 1 .12 0l1.82 1.82a.17.17 0 0 1 0 .21l-1.5 2.11a.83.83 0 0 0 0 .9 9.8 9.8 0 0 1 1.07 2.56.81.81 0 0 0 .66.61l2.57.43a.16.16 0 0 1 .13.16v2.58z"/><path id="settings-ring" d="M14.65 8.32A6.32 6.32 0 1 0 21 14.65a6.33 6.33 0 0 0-6.35-6.33zm0 11a4.67 4.67 0 1 1 4.67-4.67 4.67 4.67 0 0 1-4.67 4.67z"/></symbol><symbol id="speech-bubble" viewBox="0 0 477.37 477.6"><title>speech-bubble</title><path d="M407.47 70a238.52 238.52 0 0 0-337.6 0c-87 87-93.3 226-15.8 320.2-10.7 21.9-23.3 36.5-37.6 43.5a22.28 22.28 0 0 0 6.4 42 113.61 113.61 0 0 0 16.9 1.3c29.3 0 60.1-10.1 85.8-27.8A238.81 238.81 0 0 0 407.47 70zm-19.1 318.5a211.84 211.84 0 0 1-256.9 32.9 13.44 13.44 0 0 0-15.1.9C85.77 446 55 449.5 41.47 449.8c16.1-12 29.6-30.6 40.9-56.5a13.59 13.59 0 0 0-2.3-14.4c-74-83.6-70.1-211 8.9-290a211.73 211.73 0 0 1 299.4 0c82.63 82.7 82.63 217.1 0 299.6z"/><path d="M338.67 160h-200a13.5 13.5 0 0 0 0 27h200a13.5 13.5 0 1 0 0-27zM338.67 225.3h-200a13.5 13.5 0 0 0 0 27h200a13.5 13.5 0 0 0 0-27zM338.67 290.6h-200a13.5 13.5 0 0 0 0 27h200a13.5 13.5 0 1 0 0-27z"/></symbol><symbol id="speech" viewBox="0 0 486 486"><path d="M414.3 90.8C368.4 50.6 307.6 28.5 243 28.5S117.6 50.6 71.7 90.8C25.5 131.3 0 185.4 0 243c0 46.8 17.5 92.5 49.4 129.6-6.7 14.7-16.5 26.4-29.2 34.7-6.5 4.3-9.6 11.9-7.9 19.5 1.7 7.5 7.7 13 15.3 14 7.7 1.1 15.4 1.6 23.2 1.6 24.6 0 47-5.3 66.8-15.7 37.8 20.2 81 30.8 125.4 30.8 64.6 0 125.4-22.1 171.3-62.3C460.5 354.7 486 300.6 486 243s-25.5-111.7-71.7-152.2zM243 433.5c-42.6 0-83.9-10.7-119.6-31-1.8-1-3.9-1.6-5.9-1.6-2.1 0-4.3.6-6.2 1.7-17.4 10.5-37.8 15.8-60.6 15.8-1.8 0-3.7 0-5.5-.1 12.9-11.5 22.8-26.2 29.3-43.9 1.6-4.2.6-9-2.4-12.3C40.7 328 24 286.8 24 243c0-105.1 98.2-190.5 219-190.5S462 138 462 243c0 105.1-98.2 190.5-219 190.5z"/><path d="M287.4 152.7c-16.4 0-31.9 5.6-44.4 15.8-12.5-10.3-28.1-15.9-44.5-15.9-18.7 0-36.3 7.3-49.6 20.6s-20.6 30.9-20.6 49.7c0 18.7 7.3 36.4 20.6 49.6l79.3 79.3c3.9 3.9 9.2 6.1 14.8 6.1s10.8-2.2 14.8-6.1l79.2-79.2c13.3-13.3 20.6-30.9 20.6-49.7s-7.3-36.4-20.6-49.7c-13.2-13.2-30.8-20.5-49.6-20.5zm32.6 103l-77 77-77-77.2c-8.7-8.7-13.6-20.4-13.6-32.7s4.8-24 13.5-32.7 20.3-13.5 32.6-13.5c12.4 0 24 4.8 32.7 13.6l3.3 3.3c2.3 2.3 5.3 3.5 8.5 3.5s6.2-1.3 8.5-3.5l3.2-3.2c8.7-8.8 20.4-13.6 32.7-13.6 12.3 0 23.9 4.8 32.7 13.5 8.7 8.7 13.5 20.4 13.5 32.7 0 12.4-4.8 24-13.6 32.8z"/></symbol><symbol id="yt-video-controls" viewBox="0 0 557 35"><title>Group</title><g id="Page-1" fill="none" fill-rule="evenodd"><g id="Group"><g id="Control-Panel"><g id="fullscreen" transform="translate(23 17)"><use fill="#000" filter="url(#filter-2)" xlink:href="#path-1"/><use fill="#E0E0E0" xlink:href="#path-1"/></g><path d="M492.557 30.947h-1.48v-.842c-.56.632-1.035.95-1.553.95-.455 0-.77-.21-.93-.59-.095-.233-.163-.594-.163-1.126v-6.125h1.48v6.277c.035.215.127.294.316.294.283 0 .54-.242.852-.676v-5.895h1.48v7.732m-6.696-2.297c.078.766-.163 1.146-.623 1.146-.46 0-.7-.38-.623-1.146v-3.062c-.078-.765.163-1.124.623-1.124.46 0 .7.36.623 1.124v3.062zm1.48-2.91c0-.825-.17-1.446-.468-1.836-.394-.53-1.012-.745-1.634-.745-.705 0-1.242.215-1.635.744-.303.39-.466 1.018-.466 1.844l-.002 2.75c0 .82.144 1.39.447 1.775.394.528 1.032.807 1.655.807.622 0 1.27-.28 1.665-.807.3-.386.436-.954.436-1.776V25.74zm-5.84.996v4.21h-1.556v-4.21s-1.613-5.162-1.946-6.124h1.635l1.092 4.033 1.087-4.033h1.635l-1.947 6.124zm31.433 3.05c.347 0 .55-.186.63-.556.012-.076.01-.406.01-.963h1.48v.217c0 .447-.038.763-.05.902a1.955 1.955 0 0 1-.33.83c-.39.556-.97.83-1.705.83-.737 0-1.3-.26-1.706-.784-.3-.383-.492-.952-.492-1.765v-2.68c0-.817.175-1.45.475-1.836.407-.522.968-.8 1.688-.8.707 0 1.268.278 1.663.8.295.388.458.986.458 1.804v1.565h-2.805v1.374c-.003.706.2 1.062.685 1.062zm-3.097-1.136c0 .708-.06 1.207-.155 1.53-.188.57-.6.866-1.16.866-.5 0-1.014-.297-1.485-.87l-.002.77h-1.4V20.69h1.4l-.002 3.343c.456-.55.97-.864 1.49-.864.56 0 .938.317 1.126.89.094.308.188.803.188 1.528v3.062zm-5.37 2.297h-1.48v-.842c-.56.632-1.036.95-1.554.95-.455 0-.77-.21-.93-.59-.095-.233-.163-.594-.163-1.126v-6.05h1.48v6.202c.035.215.128.294.316.294.283 0 .54-.242.852-.676v-5.82h1.48v7.657zm-5.606 0h-1.557v-8.804h-1.634V20.69h4.905v1.453h-1.713v8.804zm17.908-9.5s-.227-1.568-.924-2.26c-.884-.905-1.875-.91-2.33-.963-3.252-.23-8.132-.23-8.132-.23h-.01s-4.88 0-8.132.23c-.454.053-1.445.058-2.33.964-.696.69-.923 2.26-.923 2.26s-.233 1.84-.233 3.682v1.727c0 1.84.232 3.683.232 3.683s.226 1.568.923 2.26c.884.905 2.046.876 2.563.97 1.86.176 7.903.23 7.903.23s4.884-.007 8.136-.237c.455-.053 1.446-.058 2.33-.964.697-.692.924-2.26.924-2.26s.232-1.842.232-3.683V25.13c0-1.84-.232-3.683-.232-3.683zm-3.195 3.918c0-.708-.186-.92-.653-.92-.47 0-.67.195-.67.91v.847l1.323-.002v-.835zm-5.806-.92c-.233 0-.498.12-.734.35l-.002 4.642c.236.23.503.35.735.35.406 0 .59-.295.59-1.06v-3.292c0-.766-.184-.99-.59-.99z" id="YouTube-Logo" fill="#757575"/><text id="1.20-/-3:00" font-family="Helvetica" font-size="12" fill="#E0E0E0" transform="translate(23 17)"><tspan x="82" y="13">1.20 / 3:00</tspan></text><path d="M79.182 33.595A8.492 8.492 0 0 0 83 26.5a8.492 8.492 0 0 0-3.818-7.095 9.56 9.56 0 0 0-.727.72A7.495 7.495 0 0 1 82 26.5c0 2.69-1.417 5.05-3.545 6.374.23.253.472.494.727.72zm-2.366-3.236A4.498 4.498 0 0 0 79 26.5a4.498 4.498 0 0 0-2.184-3.86c-.137.31-.26.63-.364.955A3.497 3.497 0 0 1 78 26.5c0 1.21-.614 2.277-1.548 2.905.105.326.227.644.364.954zM65 23v7h4v-7h-4zm4 .01v7.096L74 33V20l-5 3.01z" id="Voice" fill="#E0E0E0"/><path id="Play" fill="#E0E0E0" d="M23 18v16l14-7.914z"/></g><g id="Progress-Bar"><path fill="#CE1312" d="M0 4h556v9H0z"/><path fill="#E0E0E0" d="M179 4h378v9H179z"/><g id="Progress-Controller" transform="translate(170)"><circle id="Oval-2" fill="#EAEAEA" cx="8.5" cy="8.5" r="8.5"/><circle id="Oval-3" fill="#AEAEAE" cx="8.5" cy="8.5" r="3.5"/></g></g></g></g></symbol></svg>